<svg width="48" height="48" viewBox="0 0 48 48" fill="none" xmlns="http://www.w3.org/2000/svg">
<circle cx="24" cy="24" r="24" fill="#FACD5D"/>
<mask id="mask0" mask-type="alpha" maskUnits="userSpaceOnUse" x="0" y="0" width="48" height="48">
<circle cx="24" cy="24" r="24" fill="white"/>
</mask>
<g mask="url(#mask0)">
<path d="M16.7334 34.8L11.7334 51.1334L10.2667 54.9334C10.2667 54.9334 12.4001 57.6667 17.4667 58.7334C20.9334 59.4667 23.2667 59.5334 24.8 59.4C26.0667 59.2667 27.6 59 26.8 56.6667C25.6667 53.2 26.0667 51 26.0667 51L27.8667 41.2L16.7334 34.8V34.8Z" fill="#EA9D7D"/>
<path d="M16.0001 43.6C17.6668 46.1334 20.6001 48.2667 22.2668 49.0667C24.6001 50.2 26.2668 50.4667 26.2668 50.4667L27.8001 42.3334L16.8668 34.8L16.2668 35.9334L15.8001 37.8C15.6001 37.8 14.4668 41.2667 16.0001 43.6Z" fill="url(#paint0_linear)"/>
<path d="M10.6668 55H10.6001C10.4752 54.9363 10.3975 54.8069 10.4001 54.6667L13.5334 45.0667C14.1334 43.0667 15.9334 36.3333 15.9334 36.3333C15.9971 36.2084 16.1265 36.1308 16.2668 36.1333C16.3917 36.1971 16.4693 36.3264 16.4668 36.4667L14.0668 45.2C13.5334 47 10.9334 54.7333 10.9334 54.7333C10.9334 54.9333 10.8001 55 10.6668 55Z" fill="#CF7653"/>
<path d="M18.6 38.6667L18.7333 39L19 38.6667H18.6Z" fill="#A84D3B"/>
<path fill-rule="evenodd" clip-rule="evenodd" d="M18.4667 38.8L18.6 38.2L19.1333 38.7333L18.4667 38.8ZM22.2 41.5333V40.8L22.9333 41.2L22.2 41.5333ZM20.4 39.6666L20.2667 40.3333L21.0667 40.1333L20.4 39.6666ZM19.2667 39.5999L19.4 38.9333L20.0667 39.3999L19.2667 39.5999Z" fill="#A84D3B"/>
<path fill-rule="evenodd" clip-rule="evenodd" d="M17.8667 38.2667L18.2 37.6L18.6667 38.2667H17.8667ZM22.8667 41.9334L23.1334 42.3334L22.6 42.4667L22.8667 41.9334ZM22.2667 41.6001L21.8667 41.1334L21.6667 41.6667L22.2667 41.6001ZM24.5334 42.5333L25 43.0667L24.3334 43.1333L24.5334 42.5333ZM26.9334 43.7334L26.5334 43.2667L26.3334 43.8001L26.9334 43.7334ZM23 41.2L23.4667 41.4L23 41.7334V41.2ZM24.4 43.4667L24.0667 43.0667L23.8 43.6L24.4 43.4667ZM21.3334 40.5334L21.8 40.7334L21.3334 41.0667V40.5334Z" fill="#A84D3B"/>
<path fill-rule="evenodd" clip-rule="evenodd" d="M17.5334 36.4667L17.2667 36.7333L17.6001 36.8667L17.5334 36.4667ZM19.4667 39.7334L19.7334 39.5334L19.8667 39.9334L19.4667 39.7334ZM25.2667 42.1333L24.6667 41.8667V42.7333L25.2667 42.1333ZM26.6 42.4L26.0667 42.2667L26.2 42.9334L26.6 42.4ZM26.9334 43.4L27.4 43.4667L27.1334 43.9333L26.9334 43.4ZM25.6 43.2667L25.3334 42.8667L25 43.3334L25.6 43.2667ZM27.2667 44.3334L27.2 44.8001L26.7333 44.5334L27.2667 44.3334ZM27.0001 45.7333L27.1334 45.2667L26.6001 45.4L27.0001 45.7333ZM25.6 45.9334L25.8667 45.7334L26 46.1334L25.6 45.9334ZM26.1334 43.1333L25.8667 43.3333L26.2001 43.5333L26.1334 43.1333ZM27.2667 42.6L27.6 42.6667L27.3334 43L27.2667 42.6ZM26.4 46.4667L26.1334 46.7333L26.4667 46.8667L26.4 46.4667ZM24.0667 42.6L24.2667 42.8L23.9334 42.9334L24.0667 42.6ZM22.3334 42.2667L22.4667 41.9334L22.1334 42L22.3334 42.2667ZM23.4001 42.6001L23.3334 42.8667L23.0667 42.6001H23.4001ZM24.7334 44.1334L24.8667 44.4667L25.1334 44.2L24.7334 44.1334ZM26.4001 43L26.6667 42.8667L26.7334 43.2L26.4001 43Z" fill="#A84D3B"/>
<path fill-rule="evenodd" clip-rule="evenodd" d="M16.6 38.8L16.4 38.6667L16.3333 38.9333L16.6 38.8ZM19.2667 39L18.8667 39.2667L19.3333 39.5333L19.2667 39ZM18.2 39.8V39.4667L18.5999 39.6667L18.2 39.8ZM23.3999 41.8666L23.7333 41.6666L23.3999 41.4666V41.8666ZM18.5333 41.9333L18.6667 41.7999L18.8 41.9999L18.5333 41.9333ZM26.4 42.7333L26.8 42.4666L26.8667 42.9999L26.4 42.7333ZM25.6666 42.9333L25.9333 42.8L26 43.1333L25.6666 42.9333ZM26.2 47.5333L25.9333 47.6666L26.2667 47.8666L26.2 47.5333ZM25.6 47L25.5333 46.7333L25.8666 46.8L25.6 47ZM25.4667 45.1333L25.5333 45.4L25.8 45.2L25.4667 45.1333ZM26.5333 45.6L26.7333 45.8L26.3999 45.9333L26.5333 45.6ZM17.4667 42.6666L17.6 42.8L17.7333 42.5333L17.4667 42.6666ZM20.0667 44.1999L19.8667 44.1333V44.3333L20.0667 44.1999ZM19.2666 43.2666L19.3999 43.0666L19.5333 43.2666H19.2666ZM23.9333 45.2V45.5333L24.3333 45.4L23.9333 45.2ZM23.3333 42.4667V42.1333L23.7333 42.3333L23.3333 42.4667ZM26.1999 44.3333L25.9333 44.4L26.1333 44.6666L26.1999 44.3333ZM25.0666 46.8L25.2 47.0667H24.8666L25.0666 46.8ZM25.4666 43.6L25.6 43.9333L25.8667 43.6H25.4666ZM26.6666 44.3333L26.4666 44H26.9333L26.6666 44.3333ZM27.2 42.8L27 43L27.3333 43.1333L27.2 42.8ZM26.5333 44.7333L26.8 44.8666L26.5333 45.0666V44.7333ZM17.7333 39.3333L17.9333 39.4667L17.6667 39.6L17.7333 39.3333ZM16.2667 40.6667L16.2 40.8667L16 40.6667H16.2667Z" fill="#A84D3B"/>
<path fill-rule="evenodd" clip-rule="evenodd" d="M16.9333 36.8667L16.7333 36.7334L16.6667 37.0667L16.9333 36.8667ZM17.6 37.3334L17.8 36.9334L18.1334 37.4001L17.6 37.3334ZM18 38.7333L18.1334 39.2L18.5333 38.8L18 38.7333ZM18.8 39.4L18.9333 39.6667L19.1333 39.4H18.8ZM19.8667 40.2001L19.6667 40.3334L19.9333 40.4667L19.8667 40.2001ZM20.1334 40.0667L20.3334 39.9334L20.4 40.2L20.1334 40.0667ZM20.8667 40.2001L20.6667 40.3334L20.9333 40.4667L20.8667 40.2001ZM19.7333 41.8L19.9333 41.9333L19.6667 42.0667L19.7333 41.8ZM15.9333 39.6667L16.0667 39.9333L16.2667 39.6667H15.9333ZM17.2667 38.3334L17.4 38.1334L17.4667 38.4L17.2667 38.3334ZM17.3334 40.6667L17.1334 40.5334V40.8001L17.3334 40.6667ZM17.7334 38.1334L17.6 37.8667H17.9333L17.7334 38.1334ZM18.2 38.2667L18.3334 38.5334L18.5334 38.2667H18.2ZM16.5333 37.7334L16.6667 37.5334L16.7333 37.8667L16.5333 37.7334ZM20.4667 40.8667V40.5334L20.7334 40.7334L20.4667 40.8667ZM21.6667 41.1333L21.4667 41.2L21.6 41.4L21.6667 41.1333ZM20.9334 40.6667L21.1334 40.6L21.0667 40.8667L20.9334 40.6667ZM25.6 42.6L25.4 42.6667L25.5333 42.8667L25.6 42.6ZM24.4001 42.2L24.6667 42.1333L24.6001 42.4L24.4001 42.2ZM21.5334 42.6667L21.4 42.4L21.2 42.6667H21.5334ZM25.1334 45.7334L25.2667 45.9334H24.9334L25.1334 45.7334ZM21.1333 41.9334L21 41.7334L20.8667 41.9334H21.1333ZM23.2 41.7334L22.8667 41.8667V41.6L23.2 41.7334ZM24 41.8V42.1333L24.2667 42L24 41.8ZM24.9334 42.4667L25.1334 42.4L25.0667 42.7334L24.9334 42.4667ZM24.2667 43.8L24.1333 43.6L24 43.8H24.2667ZM21.6667 43.8667L21.3333 44V43.7334L21.6667 43.8667ZM22.6667 43L22.4 43.0667L22.6 43.2667L22.6667 43ZM24.8 43.3333L24.9333 43.5333H24.6667L24.8 43.3333Z" fill="#A84D3B"/>
<path d="M32.9334 18.8C32.9334 18.8 34.8668 21.9334 35.2001 23.4C35.5334 24.6667 35.6001 25.9334 35.6001 26.6667C35.6001 29.4667 35.4001 33.4 35.0668 35.6C34.4001 39.4 32.6001 41.6667 30.4668 42.3334C28.3334 43 24.4668 41.6 21.8668 40.2667C19.6668 39.1334 18.4001 37.9334 18.0668 36.5334C17.7334 35.0667 17.0668 33.2 17.0668 33.2L17.2001 28.8667L22.3334 17.9334L32.9334 18.8Z" fill="#EA9D7D"/>
<path d="M19.7334 30.8666C19.7334 30.8666 23.6001 26.5333 26.0667 25.6C30.8001 23.6666 35.4001 23.8666 35.4001 23.8666L34.6667 21.5333L21.2001 19.7333L18.2667 28.1333L19.7334 30.8666Z" fill="url(#paint1_linear)"/>
<ellipse cx="15.6667" cy="32.4667" rx="3.53333" ry="3.8" fill="#EA9D7D"/>
<path fill-rule="evenodd" clip-rule="evenodd" d="M11.8 32.4666C11.8 34.6666 13.5334 36.5333 15.6667 36.5333C17.8 36.5333 19.5334 34.6666 19.5334 32.4666C19.5334 30.2666 17.8 28.4 15.6667 28.4C13.5334 28.4 11.8 30.2 11.8 32.4666ZM12.4001 32.4666C12.4001 30.5333 13.8667 28.9333 15.6667 28.9333C17.4667 28.9333 18.9334 30.4666 18.9334 32.4666C18.9334 34.4 17.4667 36 15.6667 36C13.8667 36 12.4001 34.4 12.4001 32.4666Z" fill="#B76349"/>
<ellipse cx="15.8001" cy="32.4667" rx="1.6" ry="1.66667" fill="url(#paint2_linear)"/>
<path d="M19.5333 30.0666L18.4 31.0666L17.9333 34.8L18.1333 35.8666C18.1333 35.8666 19.7333 35 19.8667 33.2666C20 31.5333 19.5333 30.0666 19.5333 30.0666V30.0666Z" fill="#EA9D7D"/>
<path d="M28.2667 42.6C27.5334 42.6 26.9334 42.4666 25.6001 42.1333C23.4667 41.6 20.4667 39.9333 18.9334 38.4666C17.4667 37 17.6001 35.6 17.6001 35.5333C17.6001 35.4 17.6001 35.2 17.7334 35.2C17.8667 35.2 17.9334 35.3333 18.0001 35.4666C18.0667 35.7333 18.0667 36.8666 19.2667 38.0666C20.6667 39.4666 23.6667 41.0666 25.6667 41.6C27.7334 42.0666 28.1334 42.2 29.6667 42.0666C31.1334 41.9333 32.0001 41.3333 32.0001 41.3333C32.2001 41.2 32.4001 41.1333 32.2667 41.3333C32.1334 41.4666 31.0667 42.3333 29.7334 42.5333C29.1334 42.6 28.7334 42.6 28.2667 42.6Z" fill="#B76349"/>
<path fill-rule="evenodd" clip-rule="evenodd" d="M29.5335 30.0667L28.6668 29.5333L29.6668 29L29.5335 30.0667ZM29.0001 32.1333L28.5334 32.5333L28.4001 31.9333L29.0001 32.1333ZM22.5334 31.9334L22.6667 32.2667H22.2001L22.5334 31.9334ZM30.4001 32.9333L31.0667 33.3333L31.1334 32.5333L30.4001 32.9333Z" fill="#F4B9A6"/>
<path fill-rule="evenodd" clip-rule="evenodd" d="M29.4 25.2667L29.2 25.7334L29.8 25.6667L29.4 25.2667ZM29.5334 28.4667L28.6667 29.0001V27.8001L29.5334 28.4667ZM31.5333 34.4001L30.6667 34.9334V33.8001L31.5333 34.4001ZM31.5334 33.8667L31.8667 32.9334H30.7334L31.5334 33.8667ZM27.8001 32.0668L28.3334 31.9334L28.1334 32.5334L27.8001 32.0668ZM28.7334 31.2L28.1334 31.3334L28.5334 31.8L28.7334 31.2ZM28.8001 34.6L28.6001 34.0667L29.2667 34.1334L28.8001 34.6ZM28.8667 35.0668L29.3334 35.3334L29.4667 34.8001L28.8667 35.0668ZM31.0667 36.8667L31.6 36.6667L31.4667 37.3334L31.0667 36.8667ZM29.4668 28.5334L29.9334 28.6001L29.6668 29.0001L29.4668 28.5334ZM30.4 26.9334L29.9334 26.8667L30.0667 27.3334L30.4 26.9334ZM26.4667 28.4667L26.5334 27.8667L27.0667 28.2L26.4667 28.4667ZM27.8001 26.9334L27.3334 27.2667L27.8667 27.6001L27.8001 26.9334ZM25.2667 27.7334H25.6001L25.4667 28.0668L25.2667 27.7334ZM30.6667 36.7334L30.2001 36.8667L30.5334 37.2001L30.6667 36.7334ZM29.6667 36.5334L30.1334 36.4L30.0001 36.9334L29.6667 36.5334ZM26.1334 33.4668L25.6667 33.5334L25.9334 34.0001L26.1334 33.4668ZM26.8001 34.4667L27.2668 34.3334L27.0668 34.8667L26.8001 34.4667ZM25.7334 32.0001L25.6667 32.4001L26.2 32.2668L25.7334 32.0001ZM27.9334 31.0667L28.1334 31.4667H27.6001L27.9334 31.0667ZM33.0001 35.3334L33.2667 35.0667L32.8001 35L33.0001 35.3334ZM31.4001 34.0668L31.1334 34.0001L31.4001 33.7334V34.0668ZM34.1334 31.2001L34.4001 31.0668L34.1334 30.9334V31.2001ZM33.0667 32.4667L32.7334 32.4001L32.9334 32.1334L33.0667 32.4667Z" fill="#F4B9A6"/>
<path fill-rule="evenodd" clip-rule="evenodd" d="M28.8669 26.7334L29.4668 26.6L29.0002 26.1334L28.8669 26.7334ZM24.3335 29.2L24.5335 28.8666L24.7335 29.2H24.3335ZM34.3335 31.1334L34.2669 31.4L34.0002 31.2L34.3335 31.1334ZM30.6669 33.2667L29.4669 33.6L29.6669 32.2667L30.6669 33.2667ZM28.5335 29.0667L28.0669 29L28.1335 29.4667L28.5335 29.0667ZM24.5335 32.0667L25.0669 31.8667V32.2667L24.5335 32.0667ZM27.7335 27.7333L27.8001 28.3333L28.3335 27.9333L27.7335 27.7333ZM27.6002 29L27.0669 29.2667L27.0002 28.7333L27.6002 29ZM27.6001 28.3333L27.6668 28.9333L28.2002 28.6L27.6001 28.3333ZM33.0669 27.9333L32.6002 27.7333L33.0669 27.4V27.9333ZM28.6002 30.6L28.3335 30.2667L28.0002 30.7333L28.6002 30.6ZM30.4002 36.2667L30.8669 36.1334L30.7335 36.6667L30.4002 36.2667ZM28.8001 33.2667L28.6668 33.6H29.1335L28.8001 33.2667ZM29.0668 35.2667L29.2668 35.6L28.8668 35.6667L29.0668 35.2667ZM29.9335 35.9334L30.2002 35.6667L29.8002 35.5334L29.9335 35.9334ZM30.4668 34.8L30.1335 35.0667L30.0001 34.6L30.4668 34.8Z" fill="#F4B9A6"/>
<path fill-rule="evenodd" clip-rule="evenodd" d="M30.0668 25.8667L29.7335 26.1334L30.2001 26.2667L30.0668 25.8667ZM32.1334 26.8001L31.6667 26.9334L31.8001 26.4001L32.1334 26.8001ZM28.6001 28.0668L29.0668 28.0001L28.7335 27.6001L28.6001 28.0668ZM30.3335 29.8667L30.8668 29.4001L31.1335 30.1334L30.3335 29.8667ZM28.7335 30.3334L28.5335 30.0001H29.0002L28.7335 30.3334ZM24.1334 30.9334L23.8667 30.6001L23.6667 31.0668L24.1334 30.9334ZM30.1334 32.2668L29.8001 32.5335L29.6668 32.0668L30.1334 32.2668ZM30.4668 34.2668L30.0668 34.6001L29.9334 34.0668L30.4668 34.2668ZM28.8668 32.7334L29.2001 32.9334L29.3335 32.6001L28.8668 32.7334ZM32.4668 35.9334L32.8668 35.8667L32.7335 36.2667L32.4668 35.9334ZM30.7335 32.1335L30.6001 32.4668L31.0668 32.4001L30.7335 32.1335ZM31.5334 35.8667L31.8001 36.2001L31.3334 36.2667L31.5334 35.8667ZM29.4668 37.5334L29.5334 38.0001L29.9334 37.6667L29.4668 37.5334ZM27.9335 35.5334L28.2668 35.4001V35.8L27.9335 35.5334ZM28.9335 36.0667L28.8668 36.4667L28.6002 36.3334L28.9335 36.0667ZM27.4001 35.6667L27.6667 35.8001L27.7334 35.3334L27.4001 35.6667ZM25.1334 36.5334L25.2668 36.1334L25.6001 36.4668L25.1334 36.5334ZM26.7334 37.6001H26.3334L26.4668 38.0001L26.7334 37.6001ZM25.0001 38.0667L25.3335 38.1334L25.0668 38.4667L25.0001 38.0667ZM29.1335 31.8668L29.9335 31.6668L29.2668 31.0001L29.1335 31.8668ZM28.6002 30.7334L29.0002 31.3334L29.5335 30.6L28.6002 30.7334ZM25.9334 30.3334L25.5334 30.5334L25.9334 30.7334V30.3334ZM29.8668 30.6667L30.1334 30.4L30.2667 30.8L29.8668 30.6667ZM32.0668 29.0001L31.6001 29.1334L31.6668 28.6001L32.0668 29.0001ZM28.3335 29.1334L28.8668 29.0001L28.4668 28.6667L28.3335 29.1334ZM26.0001 27.0667L26.4001 26.8667V27.2667L26.0001 27.0667ZM26.9335 33.1334L26.8668 33.6667L27.4668 33.4667L26.9335 33.1334ZM25.7335 33.0001L26.2002 32.9334L26.0002 33.4001L25.7335 33.0001ZM27.2001 34.9334L27.1334 35.4667L27.6668 35.2667L27.2001 34.9334ZM27.8668 33.5334V33.0001L28.4668 33.2001L27.8668 33.5334ZM27.4001 34.0001L27.4668 34.5334L28.0001 34.2001L27.4001 34.0001ZM26.8001 32.1334V32.5334L26.4002 32.3334L26.8001 32.1334Z" fill="#F4B9A6"/>
<path fill-rule="evenodd" clip-rule="evenodd" d="M26.8667 27L27.2667 26.8V27.2L26.8667 27ZM31.2 28.0667L31 27.8001L31.4667 27.7334L31.2 28.0667ZM33.2001 29.2001L32.7334 29.3334L32.8001 28.8001L33.2001 29.2001ZM34.4667 33.1334L34.8667 32.9334L34.5334 32.6667L34.4667 33.1334ZM30.0667 28.0001V28.4667L30.6001 28.3334L30.0667 28.0001ZM29.4667 27.6L29.5334 27.1333L30 27.4L29.4667 27.6ZM29.8667 31.6L30.6667 32.1334L30.9334 31.1334L29.8667 31.6ZM32.6668 31.3333L31.8001 31.6L32.0668 30.5333L32.6668 31.3333ZM29.6668 32.0667L29.9334 32.1334L29.8668 31.8L29.6668 32.0667ZM29.1334 30.5333L29.2667 30.2L29.6001 30.5333H29.1334ZM30.0667 29.2001L29.6001 29.2667L29.8667 29.6667L30.0667 29.2001ZM31.0667 29.4667L31.5334 29.4L31.3334 29.8667L31.0667 29.4667Z" fill="#F4B9A6"/>
<path fill-rule="evenodd" clip-rule="evenodd" d="M31.2001 26.2667L31.4668 25.7334H30.8001L31.2001 26.2667ZM29.7335 30.0667L30.7334 29.5334L29.6668 28.8667L29.7335 30.0667ZM30.6667 33.4L30.4668 33.8667L30.0668 33.4H30.6667ZM29.6001 31.3333L30.4668 30.8667L29.5334 30.2667L29.6001 31.3333ZM30.4668 27.6666L30.1334 27.4L30.6001 27.2667L30.4668 27.6666ZM31.2001 28.1333L30.7334 28.8667L31.7334 28.9333L31.2001 28.1333ZM31.6667 27.4667L31.8667 27.2L32.1334 27.5334L31.6667 27.4667ZM32.3334 30.0667L32.6001 30.3333L32.7334 29.9333L32.3334 30.0667ZM30.8668 27.0667L31.0668 26.8L31.3335 27.1333L30.8668 27.0667ZM25.1334 30.7334L24.6667 30.8667L25.0667 31.2667L25.1334 30.7334ZM25.6001 29.1333L25.8001 28.7333L26.1334 29.1333H25.6001ZM26.8001 28.7334L26.7335 28.3334L26.4001 28.6667L26.8001 28.7334ZM26.2001 30.4667L26.2668 30.8667L25.8001 30.8001L26.2001 30.4667Z" fill="#F4B9A6"/>
<path fill-rule="evenodd" clip-rule="evenodd" d="M21.5334 21.1333V20.4L22.2001 20.7333L21.5334 21.1333ZM34.3335 22.2L34.5335 22.4L34.6002 22.0666L34.3335 22.2ZM33.3335 22.7333L33.1335 22.5333L33.4668 22.4L33.3335 22.7333ZM28.0668 23.0666L28.1334 22.7333L28.3334 23.0666H28.0668ZM28.0668 23.3333L28.2668 23.6L28.0001 23.6667L28.0668 23.3333ZM30.8668 23.1333L30.6668 22.9333L30.5334 23.2L30.8668 23.1333ZM34.2001 22.5333L33.9334 22.6L34.0001 22.2666L34.2001 22.5333ZM28.9334 23.1333L28.7334 22.9333L28.6001 23.2L28.9334 23.1333ZM31.8001 22.7333L32.0668 22.9333L31.7334 23.0666L31.8001 22.7333ZM27.7334 23.2667L27.5334 23L27.4001 23.3333L27.7334 23.2667ZM25.6668 22.2L25.5334 22.5333L25.9334 22.4667L25.6668 22.2ZM22.9334 21.5333V21.2L23.2668 21.4L22.9334 21.5333ZM22.8001 22.4666L22.7334 22.7999L23.1334 22.6666L22.8001 22.4666ZM23.2001 23.6L23.1335 23.2L23.5335 23.3333L23.2001 23.6ZM26.3335 22.6666L26.0668 22.4666L25.9335 22.7333L26.3335 22.6666ZM26.6001 22.8666L26.5335 22.3999L27.0668 22.5333L26.6001 22.8666Z" fill="#A84D3B"/>
<path fill-rule="evenodd" clip-rule="evenodd" d="M23.2001 21.3333L23.2668 21.8L23.8001 21.5333L23.2001 21.3333ZM23.8668 22.0001L24.0001 22.5334L24.4668 22.1334L23.8668 22.0001ZM27.8001 23L27.6001 22.6667H28.0668L27.8001 23ZM30.2668 23.0667L30.0668 22.8L30.5335 22.7333L30.2668 23.0667ZM31.2668 23.0667L31.0668 22.7334L31.5335 22.6667L31.2668 23.0667ZM29.0001 22.7334L29.1335 23.2001L29.6001 22.8667L29.0001 22.7334ZM25.0002 22.6667L24.8668 22.4L25.2668 22.4667L25.0002 22.6667ZM23.6668 23.6001L23.6002 23.9334L23.9335 23.8001L23.6668 23.6001ZM23.2668 24.1334L23.3335 23.8667L23.6002 24.0667L23.2668 24.1334ZM25.6668 22.6L25.8002 22.7334L25.8668 22.6H25.6668ZM27.2668 22.9334L27.1335 22.8L27.4001 22.7334L27.2668 22.9334ZM29.6668 23L29.7335 23.1333L29.8668 23H29.6668ZM22.8002 24.1334L23.0002 24.0667L22.9335 24.2667L22.8002 24.1334ZM22.8668 23.8L23.1335 23.7334L23.0668 24L22.8668 23.8Z" fill="#A84D3B"/>
<path fill-rule="evenodd" clip-rule="evenodd" d="M22.6001 21.7333V21.5333L22.8667 21.6667L22.6001 21.7333ZM23.5334 21.9333L23.2667 21.7999L23.5334 21.5999V21.9333ZM22.8667 23.4667L22.9334 23.8L22.5334 23.7333L22.8667 23.4667ZM25.2 22.3333L25.4667 22.3999L25.4 22.0666L25.2 22.3333ZM23.2 22.3333L23.4667 22.3999L23.4 22.0666L23.2 22.3333ZM23.1334 24.9333V24.7333L23.3334 24.8666L23.1334 24.9333ZM22.5334 22.2L22.2667 22.2666L22.4667 22.4666L22.5334 22.2ZM22.6 24.5333V24.0667L23.0667 24.2667L22.6 24.5333Z" fill="#A84D3B"/>
<path fill-rule="evenodd" clip-rule="evenodd" d="M22.4002 20.7999L22.4668 21.3333L22.9335 21.1999L22.4002 20.7999ZM22.9335 21.9999L22.7335 22.1999L22.6668 21.9333L22.9335 21.9999ZM23.0002 24.5999L22.7335 24.7999L22.6668 24.4666L23.0002 24.5999ZM22.3335 22.9333L22.6002 22.7333L22.2002 22.5333L22.3335 22.9333ZM24.0668 22.8666L23.8668 22.7333L24.1335 22.5999L24.0668 22.8666ZM22.7335 25.5332L23.0001 25.3999L22.7335 25.1999V25.5332ZM22.0002 26.9999V26.6666L22.2668 26.8666L22.0002 26.9999ZM22.0002 22.1332L21.8002 21.9332L22.1335 21.7999L22.0002 22.1332ZM24.4668 21.7999L24.6002 22.3999L25.1335 22.0666L24.4668 21.7999ZM22.2002 21.7333L22.0002 21.5333L22.3335 21.4666L22.2002 21.7333ZM26.1335 23.0665L26.4668 23.1999L26.4002 22.8665L26.1335 23.0665ZM32.7335 22.9999L32.4669 22.8666L32.7335 22.6666V22.9999ZM22.5335 23.5333L23.0002 23.3333L22.5335 22.9333V23.5333ZM21.8668 21.2666L22.1335 20.7999L22.4002 21.3333L21.8668 21.2666Z" fill="#A84D3B"/>
<path fill-rule="evenodd" clip-rule="evenodd" d="M21.6001 21.4L21.8668 21.2666V21.6L21.6001 21.4ZM23.2001 22.8L23.4667 22.8666L23.2667 23.0666L23.2001 22.8ZM24.2667 21.8L24.2001 22.0666L24.4667 22L24.2667 21.8ZM22.0667 21.8666L22.5334 22.0666L22.0667 22.4V21.8666Z" fill="#A84D3B"/>
<path fill-rule="evenodd" clip-rule="evenodd" d="M22.6002 21.3333L22.7335 21.6L22.8668 21.3333H22.6002ZM21.8668 21.5333L21.8002 21.7333L22.0668 21.6667L21.8668 21.5333ZM23.7334 21.5334L24.0668 21.8L23.6668 22L23.7334 21.5334Z" fill="#A84D3B"/>
<path fill-rule="evenodd" clip-rule="evenodd" d="M15.8667 30.9333L16.2 30.8667L16.0667 31.2L15.8667 30.9333ZM17.3334 32.5333V32.8L17.0667 32.6L17.3334 32.5333Z" fill="#964C38"/>
<path fill-rule="evenodd" clip-rule="evenodd" d="M15.1334 31L15.5334 30.8667L15.4668 31.3333L15.1334 31ZM15.8001 31.3333L16.1335 30.9333L16.3335 31.4667L15.8001 31.3333ZM17.2667 31.8L17.0667 32L17.3334 32.0667L17.2667 31.8ZM16.4668 31.7334L16.6668 31.5334L16.7334 31.8L16.4668 31.7334Z" fill="#964C38"/>
<path fill-rule="evenodd" clip-rule="evenodd" d="M15.4 31.6001L15.6 31.4001L15.6667 31.6667L15.4 31.6001ZM16.9333 32.2L17.0667 32L17.2 32.2667L16.9333 32.2Z" fill="#964C38"/>
<path fill-rule="evenodd" clip-rule="evenodd" d="M15 31.5334L15.2667 31.2667L15.4667 31.7334L15 31.5334ZM16.5334 32.5334L16.3334 32.4667L16.6001 32.3334L16.5334 32.5334ZM17.1334 31.6L17.0667 31.7334H17.2667L17.1334 31.6ZM17.2001 32.4L17.2667 32.2667L17.4001 32.4H17.2001Z" fill="#964C38"/>
<path fill-rule="evenodd" clip-rule="evenodd" d="M16.4668 30.9333L16.2668 31.1333L16.2001 30.8667L16.4668 30.9333ZM14.6001 31.4L14.8668 31.1333L15.0001 31.5333L14.6001 31.4ZM15.3334 32.3333L15.2668 32.1999H15.4001L15.3334 32.3333ZM15.7335 32.6L15.6001 32.6667L15.8001 32.7333L15.7335 32.6ZM15.5334 31.1333L15.3334 31.2666L15.6001 31.3333L15.5334 31.1333ZM15.0001 31.2L15.2001 31.2667L15.0001 31.4667V31.2Z" fill="#964C38"/>
<path fill-rule="evenodd" clip-rule="evenodd" d="M16.4666 31.4667L16.5333 31L16.9333 31.3333L16.4666 31.4667ZM15.2 31.2667V31.0667L15 31.1334L15.2 31.2667ZM16.8 31.6L16.9333 31.8L17.0667 31.5334L16.8 31.6Z" fill="#964C38"/>
<path fill-rule="evenodd" clip-rule="evenodd" d="M15.9335 30.8667L15.7335 30.8V31L15.9335 30.8667ZM16.5335 31.4666L16.3335 31.2666L16.6001 31.2L16.5335 31.4666ZM14.6001 32.1333L14.7334 31.9333L14.8001 32.1333H14.6001ZM15.6668 32.2L15.5335 32.0667L15.8001 32L15.6668 32.2ZM16.0668 32.8666L15.9334 33.0666L16.2001 33.1333L16.0668 32.8666ZM14.5334 31.6667L14.6668 31.4667L14.8001 31.6667H14.5334Z" fill="#964C38"/>
<path fill-rule="evenodd" clip-rule="evenodd" d="M14.7334 31.8H14.5334L14.6001 31.6L14.7334 31.8ZM15.0668 32.8L15.2668 32.8667L15.1334 33.0667L15.0668 32.8Z" fill="#964C38"/>
<path fill-rule="evenodd" clip-rule="evenodd" d="M15.6001 31.0667L15.6667 31.2667L15.8667 31.1334L15.6001 31.0667ZM16.0001 31.5334L15.8001 31.6L16.0001 31.8V31.5334ZM14.6001 31.8667L14.5334 31.6667L14.4667 31.8667H14.6001ZM14.4667 32.5333L14.4001 32.3333L14.3334 32.6L14.4667 32.5333ZM14.9334 31.8667V31.6667L15.1334 31.7333L14.9334 31.8667ZM14.5334 32.2666L14.4001 32L14.2667 32.2666H14.5334ZM14.6667 32.5333V32.3333L14.8667 32.4L14.6667 32.5333ZM17.0001 32.7333L16.9334 32.5333L17.2001 32.6L17.0001 32.7333ZM16.1334 31.6L16.2667 31.8L16.0667 31.8667L16.1334 31.6Z" fill="#964C38"/>
<path fill-rule="evenodd" clip-rule="evenodd" d="M34.4667 25.9333C34.5334 26 34.6667 26 34.7334 26C34.8667 26 35.0001 25.9333 35.1334 25.8C35.2605 25.5754 35.2037 25.2917 35.0001 25.1333C34.1763 24.5449 33.1448 24.7874 32.8681 24.8525C32.8313 24.8611 32.8079 24.8666 32.8001 24.8666C32.5334 24.9333 32.4001 25.2 32.4667 25.4666C32.5334 25.7333 32.8001 25.8666 33.0667 25.8C33.0764 25.8 33.1014 25.7944 33.1388 25.786C33.3596 25.7367 34.0107 25.5912 34.4667 25.9333ZM24.6 27.3333C24.6667 27.4 24.8 27.4 24.8667 27.4C24.9643 27.4 25.0619 27.3642 25.1857 27.3189C25.231 27.3024 25.2798 27.2845 25.3333 27.2666C25.3333 27.2 26.1333 26.0666 27.9334 26.2C28.2 26.2 28.4667 26 28.4667 25.7333C28.4667 25.4666 28.2667 25.2 28 25.2C25.7668 25.0139 24.688 26.3863 24.4952 26.6316C24.4808 26.65 24.4713 26.662 24.4667 26.6666C24.3396 26.8912 24.3963 27.1749 24.6 27.3333Z" fill="#AF361A"/>
<ellipse cx="27.2667" cy="30" rx="0.933334" ry="0.933336" fill="#4F2B23"/>
<ellipse cx="34.2001" cy="29.5334" rx="0.933342" ry="0.933331" fill="#4F2B23"/>
<path d="M31.1334 35.6667C30.9334 35.6667 30.7334 35.5333 30.6667 35.2667C30.6001 35 30.8001 34.7333 31.0667 34.7333C31.0667 34.7333 31.8001 34.6 31.8667 34C31.9334 33.4 31.3334 31.7333 31.0001 30.8667C30.8667 30.6 31.0001 30.3333 31.2667 30.2667C31.5334 30.1333 31.8001 30.2667 31.8667 30.5333C32.0001 30.8 32.8668 33.0667 32.8001 34.1333C32.7334 35.1333 31.8001 35.6667 31.2667 35.7333C31.2001 35.6667 31.1334 35.6667 31.1334 35.6667Z" fill="#B4603F"/>
<path d="M28.8668 38.4667C26.3335 38.3333 25.2668 36.5333 25.0001 35.5333C24.9335 35.2667 25.0668 35 25.3335 34.9333C25.6001 34.8667 25.8668 35 25.9335 35.2667C25.9335 35.3333 26.4668 37.3333 28.8668 37.4667C29.1335 37.4667 29.3335 37.7333 29.3335 37.9333C29.3335 38.2667 29.1335 38.4667 28.8668 38.4667Z" fill="#CF7653"/>
<path fill-rule="evenodd" clip-rule="evenodd" d="M24.5334 31.0667C24.5334 33.4667 26.0001 35.4667 27.8668 35.4667C29.6668 35.4667 31.2001 33.4667 31.2001 31.0667C31.2001 28.6667 29.6668 26.6667 27.8668 26.6667C26.0668 26.6667 24.5334 28.6667 24.5334 31.0667ZM25.2001 31.0667C25.2001 29 26.4001 27.3333 27.8668 27.3333C29.3335 27.3333 30.5335 29 30.5335 31.0667C30.5335 33.1333 29.3335 34.8 27.8668 34.8C26.4001 34.8 25.2001 33.1333 25.2001 31.0667Z" fill="white"/>
<path fill-rule="evenodd" clip-rule="evenodd" d="M30.4001 29.8L31.0001 30.1334C31.0001 30.1334 31.2001 29.7334 31.4668 29.8C31.8668 29.8 32.2001 30.0667 32.2001 30.0667L32.6001 29.5334C32.6001 29.4667 32.1334 29.1334 31.4668 29.1334C30.8001 29.1334 30.4001 29.8 30.4001 29.8ZM19.8248 29.298L19.7114 29.9553L24.7114 30.822L24.8248 30.1647L19.8248 29.298Z" fill="white"/>
<path d="M17.8667 14.3333C17.8667 14.3333 14.5334 13 11.8667 17.6667C8.93337 22.8667 12.7334 29.7333 12.7334 29.7333C12.7334 29.7333 13.8667 28.0667 16.0667 28.4C17.8667 28.6667 18.4 29.6667 18.9334 30.2667C19.4667 30.8 21.6 30.3333 22.3334 27.8667C22.8667 25.9333 22.8667 24.0667 22.2 22.7333C21.5334 21.4 20.9334 19.8667 21.8667 20.5333C22.8 21.2 24.4 22.0667 26.8667 22.4667C29.3334 22.8667 34.0667 23.2667 36.4667 21.2C38.8667 19.2 39 17.4667 38.9333 16.0667C38.8667 14.6667 38.1333 13.8667 38.1333 13.8667C38.1333 13.8667 36.8 14.6 36.1333 14.6667C35.4667 14.7333 34.9333 14.8 35 13.9333C35.1333 11.9333 34 11.2667 34 11.2667C34 11.2667 33.5333 11.8667 33 12.2C31.8667 12.8667 31.2 12.9333 30.0667 12.5333C28.6 12.0667 27.0667 10.7333 24.0667 10.6667C21.9334 10.7333 19.5334 11.8667 17.8667 14.3333Z" fill="#C94112"/>
<path fill-rule="evenodd" clip-rule="evenodd" d="M25.7334 11.7334L25.4667 10.9334L26.4 11.1334L25.7334 11.7334ZM32.5334 13.3334L31.8668 12.8L32.2668 12.6667L32.7334 12.4667L32.5334 13.3334ZM34.0001 11.4001L33.6001 11.9334L34.2667 12.0001L34.0001 11.4001ZM30.6668 14.2667L31.4001 13.7334V14.8001L30.6668 14.2667ZM29.0667 12.7334L28.8667 13.0667L29.3334 13.1334L29.0667 12.7334ZM23.1334 11.6667L23.4001 11.2L23.7334 11.8L23.1334 11.6667ZM24.0001 11.7334L23.8001 12.2667L24.3334 12.3334L24.0001 11.7334ZM23.3334 12.6667L22.7334 12L23.8667 11.8L23.3334 12.6667Z" fill="#FF593E"/>
<path fill-rule="evenodd" clip-rule="evenodd" d="M22.7333 12L22.0667 11.4667L22.9333 11.1333L22.7333 12ZM24.2666 12.1334L25 12.0667L24.6 12.8667L24.2666 12.1334ZM32.4 14.6666L32.1333 14.8666L32.4 15.0666V14.6666ZM29.7333 13.4667L30 13.2667L30.0667 13.6667L29.7333 13.4667ZM30.5999 14L30.8666 13.6667L30.3999 13.5334L30.5999 14ZM33.6667 14.6L33.9334 14.4L34 14.7334L33.6667 14.6ZM33.0666 13.6L32.7333 13.2666L32.5333 13.8L33.0666 13.6ZM34.1333 12.1334L34.4667 12.4667L33.9333 12.7334L34.1333 12.1334Z" fill="#FF593E"/>
<path fill-rule="evenodd" clip-rule="evenodd" d="M25.0667 11.2667L24.6 10.8667L24.4 11.5333L25.0667 11.2667ZM28.3334 12.1333L27.9334 11.7333L27.7334 12.3333L28.3334 12.1333ZM30.3334 12.7333L30.0667 13.2L29.7334 12.6666L30.3334 12.7333ZM30.6667 13.4666L30.3334 13.1333L30.1334 13.6666L30.6667 13.4666ZM31.8668 13.8L32.2001 14.1333L31.6668 14.4L31.8668 13.8ZM30.2667 14L30.6667 14.3334L30.0667 14.6L30.2667 14ZM28.8001 12.2667L29.2001 12.6L28.6668 12.8L28.8001 12.2667ZM24.3334 11.2L23.8667 11.6666L23.6667 10.9333L24.3334 11.2ZM26.8668 11.4666L26.5334 11.1333L26.3334 11.7333L26.8668 11.4666ZM25.3334 11.9333L24.8667 11.4L25.7334 11.2L25.3334 11.9333Z" fill="#FF593E"/>
<path fill-rule="evenodd" clip-rule="evenodd" d="M24.9333 10.8L25.4 10.9334L25 11.2667L24.9333 10.8ZM22.6 10.8667L23.0666 11.4001L23.4666 10.8001L22.6 10.8667ZM24.8 12.2001L24.4 11.6001L25.2 11.4001L24.8 12.2001ZM25.0667 12.6667L24.9333 12L25.7333 12.2L25.0667 12.6667ZM33.3333 12.8L33.2667 12.2L32.7333 12.5334L33.3333 12.8ZM30.6 13.5334L30.3333 12.8667L31.1333 13L30.6 13.5334ZM29.1333 12.3334L29.3333 13.0667L29.8666 12.6L29.1333 12.3334ZM28.4 12.6L28.2666 11.8667L29 12.2L28.4 12.6Z" fill="#FF593E"/>
<path fill-rule="evenodd" clip-rule="evenodd" d="M23.4668 10.8L23.9334 10.9334L23.5334 11.3334L23.4668 10.8ZM22.2667 11.0667H22.7334L22.5334 11.5333L22.2667 11.0667ZM31.8001 16.2667L31.6001 16.4667L31.8668 16.6L31.8001 16.2667ZM33.0001 15.3333L33.2001 15.4667L32.9334 15.6L33.0001 15.3333ZM32.7334 14.3333L32.8668 14.6666L33.0668 14.4L32.7334 14.3333ZM29.6668 13.3333L29.5334 13H29.8668L29.6668 13.3333ZM32.1334 15.3333L31.9334 15.5333L32.2001 15.6L32.1334 15.3333ZM24.8001 15.6L25.0001 15.4L25.0667 15.6666L24.8001 15.6ZM32.0668 13L31.6001 13.4L32.2001 13.7333L32.0668 13ZM31.2001 15.8L31.4667 15.9333L31.2001 16.0667V15.8ZM31.6667 15.2666L31.8667 15.3333L31.8001 15.0666L31.6667 15.2666ZM30.2667 15.2666L29.8668 15.2L30.1334 14.8L30.2667 15.2666Z" fill="#FF593E"/>
<path fill-rule="evenodd" clip-rule="evenodd" d="M24.4 11.3333L24.6666 10.9333L24.0667 10.8667L24.4 11.3333ZM27.5999 11.6667L27.3333 12.0667L27 11.4667L27.5999 11.6667ZM31.7999 12.8667L31.5999 13.4001L31.1333 12.9334L31.7999 12.8667ZM29.6 15.8V15.5334L29.8666 15.7334L29.6 15.8ZM31.0667 13.8L31.3333 13.4L30.8 13.2667L31.0667 13.8ZM32.4 16.6001V16.3334L32.6666 16.5334L32.4 16.6001ZM30.8666 16.3334L30.5333 16.4001L30.7333 16.6001L30.8666 16.3334ZM25.7333 16.8667L26.0666 16.8001L25.9333 17.1334L25.7333 16.8667ZM29.8 16.9333L29.9333 17.2L30.0666 16.9333H29.8ZM33.6 14.0667L33.4 13.7334L33.8 13.6667L33.6 14.0667ZM28.8667 16.5334L29.0667 16.2H28.6667L28.8667 16.5334ZM26.2666 11.4667L26.8666 11.4L26.6 12.0667L26.2666 11.4667ZM30.0667 14.1334L30.3334 13.6H29.6667L30.0667 14.1334ZM25.5333 14.7333L26.0666 14.4V15.0667L25.5333 14.7333ZM28 15.2667L27.5333 15.5334L28 15.8V15.2667ZM26.3333 15.8667L26.2 15.6667L26.4667 15.6L26.3333 15.8667Z" fill="#FF593E"/>
<path fill-rule="evenodd" clip-rule="evenodd" d="M27.7335 11.8667L26.9334 12.2667L27.6001 12.8667L27.8668 12.4667L27.7335 11.8667ZM24.6001 12.7333L24.4668 13.4L25.2001 13.1333L24.6001 12.7333ZM24.9334 14.2L25.0667 14L25.2001 14.2H24.9334ZM27.0668 15.8667L27.2668 15.9334L27.0668 16.0667V15.8667ZM26.5334 14.8666L26.3334 15.2L26.8001 15.2666L26.5334 14.8666ZM28.0001 17.2666L28.2001 17.3333L28.0668 17.5333L28.0001 17.2666ZM24.1335 15.9333L24.0001 15.4L24.6001 15.5333L24.1335 15.9333ZM26.5334 13L27.0667 12.7333L27.2001 13.0666L27.0001 13.4666L26.5334 13Z" fill="#FF593E"/>
<path fill-rule="evenodd" clip-rule="evenodd" d="M26.4 11.8L26 11.6667L25.5333 11.8L25.9333 12.4667L26.4 11.8ZM26.2666 12.2667L27.3333 12.4L26.6666 13.1334L26.2666 12.2667ZM27.1333 13.6L26.6666 13.3333L26.2666 13.4L26.4 14.3333L27.1333 13.6ZM23.6667 15.4L23.0667 15.7333L23.7333 16.0666L23.6667 15.4ZM28.9333 13.1334L29.8 13.3334L29.0667 14.0667L28.9333 13.1334Z" fill="#FF593E"/>
<path d="M30.1334 13.9334L29.2667 13.7334L29.4001 14.6667L30.1334 13.9334Z" fill="#FF593E"/>
<path fill-rule="evenodd" clip-rule="evenodd" d="M24 12.4001L24.4667 13.0667L23.4667 13.2001L24 12.4001ZM25 13.1334L25.4 12.8L25.8667 13.4667L24.8667 13.5334L25 13.1334ZM29.3334 14.2667L29.6667 14.8001L28.9334 14.8667L29.3334 14.2667ZM25.1333 14.0001L24.5333 13.6668L24.4 14.4668L25.1333 14.0001ZM28.5334 15.0667L28.8 14.4667L28 14.4001L28.5334 15.0667ZM27.7334 14.8668L27.1334 15.1334L27.2667 14.3334L27.7334 14.8668ZM32.8 13.2L33.2667 13.0667L32.8667 12.6667L32.8 13.2ZM23.9334 15.1334L23.3334 15.3334L23.4667 14.6L23.9334 15.1334Z" fill="#FF593E"/>
<path fill-rule="evenodd" clip-rule="evenodd" d="M33.6667 12.4667L33.3334 12.1334L33.8667 11.9334L33.6667 12.4667ZM21.2001 15L20.7334 15.2L20.8667 14.6L21.2001 15ZM26.9334 14.7333L26.8001 14.1333L26.2001 14.5333L26.9334 14.7333ZM26.0001 12.5334L26.8668 12.8L26.1335 13.4667L26.0001 12.5334ZM28.8668 12.9333L28.0001 12.7333L28.1335 13.6667L28.8668 12.9333ZM27.8668 13.7334L28.6668 13.9334L27.9334 14.6667L27.8668 13.7334ZM27.6667 13.8L27.2001 14.0667L27.6001 14.4667L27.6667 13.8ZM25.5334 15.4667L25.7334 15.6667L25.4667 15.7333L25.5334 15.4667Z" fill="#FF593E"/>
<path fill-rule="evenodd" clip-rule="evenodd" d="M28 12.8L28.0667 12.4667L28.3333 12.6667L28 12.8ZM26.8667 14.1334L27 14.4667L27.2667 14.1334H26.8667ZM25.3334 14.8667L25 14.4667L24.8 15.0667L25.3334 14.8667ZM29 14.2L28.8 13.6667L28.3333 14.1334L29 14.2ZM25.9333 13.5333L26.4666 13.7333L25.9333 14.2V13.5333Z" fill="#FF593E"/>
<path fill-rule="evenodd" clip-rule="evenodd" d="M27.7335 12.8L27.5335 13H27.8001L27.7335 12.8ZM27.4001 13.1333L28.0001 13V13.8666L27.3335 13.4L27.4001 13.1333ZM24.2668 13L24.7335 13.2L24.2668 13.6V13ZM25.4001 13.5333L25.9335 13.8L25.4001 14.2V13.5333ZM28.6668 13.5333L28.6001 13.3333L28.3335 13.5333H28.6668ZM29.4001 16.4V16.0667L29.7334 16.2667L29.4001 16.4ZM28.0668 16.5333L28.2001 16.8L28.3334 16.5333H28.0668ZM29.0001 15.6666L28.6668 15.8V15.5333L29.0001 15.6666ZM27.8668 14.2667L27.9334 13.9333L27.5334 14L27.8668 14.2667ZM28.1335 14.4666L28.2668 14.2666L28.4668 14.4666H28.1335ZM27.1335 15.3333L27.0001 15.6H27.2668L27.1335 15.3333ZM28.8668 12.9334L29.0001 13.0667L28.7334 13.2L28.8668 12.9334ZM31.2002 15.1333L31.2668 14.8L30.9335 14.8667L31.2002 15.1333ZM30.6668 15.6L30.6001 15.8667L30.3335 15.6H30.6668ZM24.2668 16.8L24.3335 16.4667L24.0001 16.5333L24.2668 16.8ZM30.4668 14.8L30.4001 14.4L30.8668 14.5333L30.4668 14.8Z" fill="#FF593E"/>
<path fill-rule="evenodd" clip-rule="evenodd" d="M25.5333 13.1334L25.1333 12.6667L25.8 12.4667L25.5333 13.1334ZM28.3333 13.7334L28.2666 13.4001L28.6666 13.5334L28.3333 13.7334ZM30.6667 15.2L30.5333 15L30.4 15.2667L30.6667 15.2ZM23.5333 17L23.7333 17.2L23.4 17.2667L23.5333 17ZM28.2666 15.0667L28 15.1333L28.2666 15.3333V15.0667ZM27.8 14.5333L27.8667 14.8L27.6 14.7333L27.8 14.5333ZM13.2666 15.8L14.2 16.1333L14.1333 15L13.2666 15.8ZM22.7333 16L23.0667 15.9334L22.9333 16.2667L22.7333 16ZM20.8666 13.8667L20.1333 14L20.6666 14.6667L20.8666 13.8667ZM18.7333 15.4667L18.9333 15.7334H18.5333L18.7333 15.4667ZM21.4667 16.2L21.2667 15.8L20.9333 16.1333L21.4667 16.2ZM15.9333 16.1334V15.4667L16.6667 15.8667L15.9333 16.1334ZM22 12.7334V13.4001L22.6667 13.1334L22 12.7334ZM23.1333 13.0667L23.2 12.6667L23.6 12.8667L23.1333 13.0667ZM23.0667 13.4667V13.8667L23.4666 13.7333L23.0667 13.4667ZM11.3334 19.0667L11.7334 18.0667L12.2667 19.0001L11.3334 19.0667ZM11.2667 19.1334L11.0667 20L11.8667 19.6L11.2667 19.1334ZM13.1334 20.8V20.4L13.5334 20.6667L13.1334 20.8ZM12.2 20.3333V20.6667L12.6 20.5333L12.2 20.3333ZM18 14.4L18.2667 13.8667L18.6667 14.4H18ZM17.1333 15.9334L17 15.6667L16.7333 15.9334H17.1333ZM16.6666 16L16.9333 16.5334L16.2666 16.4667L16.6666 16ZM21.5333 14.2667L21.2666 14.8667H22L21.5333 14.2667ZM20 16.2V15.8667L20.3334 16.0667L20 16.2Z" fill="#FF593E"/>
<path fill-rule="evenodd" clip-rule="evenodd" d="M21.6667 13.1333L21.0001 12.8667L21.6001 12.3333L21.6667 13.1333ZM23.4667 14.0666L23.5334 13.2L24.4668 13.7333L23.4667 14.0666ZM14.8667 19V18.7333L15.2 18.9333L14.8667 19ZM14.2667 20.4L14.6 20.4666L14.3334 20.7333L14.2667 20.4ZM12.8667 19.1333L12.8001 19.8667L13.4667 19.6L12.8667 19.1333ZM11.8667 19.8667V19.1333L12.5334 19.6L11.8667 19.8667ZM12.6 21.2667L12.5334 21.6L12.9334 21.4667L12.6 21.2667ZM22.0667 14.1333L22.8 14.4L22.7334 13.4667L22.0667 14.1333ZM23.1334 12.9333L22.6 13L22.9334 13.5333L23.1334 12.9333ZM14.2 20.1333H13.9334L14.1334 19.8667L14.2 20.1333ZM14.2001 18.6V18.8L14.4001 18.6666L14.2001 18.6ZM16.8667 19.2667L17.0667 19.1334V19.4L16.8667 19.2667ZM14.0668 21.6L13.8668 21.7333L14.0668 21.8666V21.6ZM12.8667 22.4667L13.0001 22.3333L13.0667 22.6L12.8667 22.4667ZM15.6667 18.9333L15.7334 19.1333L15.9334 18.9333H15.6667ZM14.6001 19.6667L14.4667 19.3333H14.8667L14.6001 19.6667ZM17.4 18.8L17.2667 18.8666L17.4667 19L17.4 18.8ZM22.5333 14.4667L22.8 14.7333L22.4 14.8667L22.5333 14.4667ZM33.8001 13.2667L34.1334 13.5333L34.2001 13.1333L33.8001 13.2667ZM36.2667 15.4667L35.8667 14.8667H36.2L36.6667 14.8L36.2667 15.4667ZM38.1334 14L37.6 14.4L38.2 14.6667L38.1334 14ZM35.4 16.8667L35.7334 16.8L35.6667 17.1333L35.4 16.8667ZM37.3334 16.8666L37.0001 17L37.2667 17.2666L37.3334 16.8666ZM36.4667 15.4666L36.7333 15.9333L36.1334 16L36.4667 15.4666ZM38.3334 15.2L38.0667 14.8L37.7334 15.2666L38.3334 15.2ZM35.4667 15.8L35.7333 16.2L35.1333 16.2666L35.4667 15.8ZM35.0668 15.0666L34.8001 14.6L34.5334 15.1333L35.0668 15.0666ZM37.2667 14.4667V15.0667L36.6667 14.7334L37.2667 14.4667ZM36.2667 17.7333L36.1334 17.5333L36.0001 17.8L36.2667 17.7333ZM36.2 16.8666V16.5333L36.5334 16.6666L36.2 16.8666ZM35.3334 17.3333L35.0667 17.4667L35.3334 17.6667V17.3333ZM35.0667 14.9333L35.7334 14.8666L35.4 15.5333L35.0667 14.9333Z" fill="#FF593E"/>
<path fill-rule="evenodd" clip-rule="evenodd" d="M20.6001 12.3333L20.2668 12.8L19.8668 12.2L20.6001 12.3333ZM19.7334 13.1333L19.8667 12.8L20.0667 13.1333H19.7334ZM20.2667 12.9333L20.1334 13.1999L20.4667 13.2666L20.2667 12.9333ZM17.4667 14.2666L17.5334 14.8666L18.2 14.5333L17.4667 14.2666ZM37.2667 14.5333L37.5334 14.9333L37.8667 14.5333H37.2667ZM37.0001 15.4L36.5334 15.4666L36.7334 14.9333L37.0001 15.4ZM35.0001 15.8L34.8001 15.6667L35.0001 15.4667V15.8ZM35.0667 17.2667L34.8667 17.1333L35.0667 17V17.2667ZM36.9334 16.1333L37.0667 16.5333L37.3334 16.1333H36.9334ZM37.7334 16.1333L37.4668 15.7999L37.9334 15.7333L37.7334 16.1333ZM13.6001 17.9333L13.4001 17.5999H13.8001L13.6001 17.9333ZM12.7334 17.1333L13.0001 17.6666L13.4001 17.0666L12.7334 17.1333ZM13.4001 16.6666L12.9334 16.1999L13.6001 15.9333L13.4001 16.6666ZM23.4001 14.1999L22.7334 14.0666L22.9334 14.8L23.4001 14.1999ZM22.4001 14.9333L22.9334 15.0666L22.5334 15.5999L22.4001 14.9333ZM29.6668 15.1333L29.0668 15L29.2668 15.6666L29.6668 15.1333Z" fill="#FF593E"/>
<path fill-rule="evenodd" clip-rule="evenodd" d="M20.8667 12.1334L20.4667 12.3334L20.4001 11.9334L20.8667 12.1334ZM19.7334 12.3334L19.9334 12.9334L19.2 12.8L19.7334 12.3334ZM19.9334 13.0667L20.3334 13.5334L19.6667 13.7334L19.9334 13.0667ZM19.4 13.6L19.7334 13.0667L19.0667 12.9334L19.4 13.6ZM21.9334 12.8L21.6 12.7334L21.8667 12.4L21.9334 12.8ZM21 12.8001L20.4667 12.6001L20.5334 13.2001L21 12.8001ZM22.8001 12L22.0001 12.3333L22.6667 13L22.8001 12ZM12.6 21.0001V20.7334L12.9333 20.9334L12.6 21.0001ZM13.1333 17.5333L13.2667 17.8L13.4 17.5333H13.1333ZM11.5334 21.6667L11.8001 21.6001L11.7334 21.8667L11.5334 21.6667ZM12.2 21.2667L12.1334 21L11.9334 21.2667H12.2ZM12.8 18.9334L12.2 18.5334L12.9334 18.1334L12.8 18.9334ZM14.6 17.3334L14.8667 17.4001V17.0667L14.6 17.3334ZM12.4668 16.8667L12.8001 16.3334L13.2001 17L12.4668 16.8667ZM13.6667 18.8667L13.6 19.3334L14.1334 19.1334L13.6667 18.8667ZM13.7334 16.3334L14.2667 16.4L13.8667 16.9334L13.7334 16.3334ZM15.1334 17.8L14.5334 17.8667L14.8667 18.4L15.1334 17.8ZM13.7334 17.0667L14.3334 17L14.1334 17.6L13.7334 17.0667ZM15.7334 15.5333L15.2001 15.6L15.5334 16.1333L15.7334 15.5333ZM12.7334 18L11.8001 17.8667L12.4001 16.9334L12.7334 18ZM11.0667 20.1334L10.8667 20.9334L11.8667 20.7334L11.0667 20.1334ZM13.4667 19.6667L13.8667 19.5334L13.8001 20.0667L13.4667 19.6667ZM12.2 20.0001L12.6667 20.1334L12.6 19.6001L12.2 20.0001ZM13.2667 21.4001L13.0001 21.5334V21.2667L13.2667 21.4001ZM12.2 21.8667L12 21.9333L12.1333 22.1333L12.2 21.8667ZM17.6667 15.9334L18 15.6667L18.0667 16.1334L17.6667 15.9334ZM17.4667 14.9333L17.1334 15.1333L17.5334 15.4L17.4667 14.9333ZM15.6 15.1334L16.1333 14.7334L16.2667 15.4667L15.6 15.1334Z" fill="#FF593E"/>
<path fill-rule="evenodd" clip-rule="evenodd" d="M19.0666 14.4667L18.8 14.2L19.2666 14.0667L19.0666 14.4667ZM20.1332 14.8001L19.9999 14.6001L20.2666 14.5334L20.1332 14.8001ZM18.1333 14.8L18.3999 14.6V15L18.1333 14.8ZM16.7333 16.0001L16.9999 15.8001L17.0666 16.2001L16.7333 16.0001ZM17.7333 15.6667L17.9333 15.8667L18.0666 15.6001L17.7333 15.6667ZM13.3333 18.6001L13.1333 18.1334L13.7333 18.2001L13.3333 18.6001ZM15.2 17.0001L15.3333 17.2001L15.4666 16.9334L15.2 17.0001ZM19.0666 14.7334L19.1999 14.8667L19.3333 14.6667L19.0666 14.7334ZM15.3332 16.2668L15.4666 16.4668L15.5999 16.2001L15.3332 16.2668ZM17.1332 15.6668L17.3999 15.4668L17.4666 15.8668L17.1332 15.6668ZM16.8666 15.4667L17.0666 15.0667H16.5332L16.8666 15.4667ZM16.5999 14.2001L16.3999 14.8001L15.8666 14.2001H16.5999ZM18 15.3334L17.8 15.2001L17.7333 15.4668L18 15.3334ZM17.0666 16.2667L17.2666 16.1334L17.3333 16.4L17.0666 16.2667ZM16.2666 15.9334L16.0666 15.7334L15.9999 16.0667L16.2666 15.9334ZM12.1999 22.3334L11.9999 22.5334L11.9333 22.2001L12.1999 22.3334ZM11.1333 23.7334L11.2667 23.6L11.0667 23.4667L11.1333 23.7334ZM11.5333 22.6001L11.3333 22.8001L11.2666 22.5334L11.5333 22.6001ZM11.1333 24.2001L11.3333 24.4001L11.3999 24.0667L11.1333 24.2001ZM11.7999 23.3334L11.4666 23.4667V23.1334L11.7999 23.3334Z" fill="#FF593E"/>
<path fill-rule="evenodd" clip-rule="evenodd" d="M15 16.8L14.6001 16.4666L15.2 16.2L15 16.8ZM11.2667 21.6L10.9334 21.2666L11.4667 21.1333L11.2667 21.6ZM12.4668 23.0666L12.2001 23.2V22.8666L12.4668 23.0666ZM11.2001 21.6667L10.8667 22.2L11.6667 22.2667L11.2001 21.6667ZM10.8667 23.0666V22.4666L11.3334 22.7999L10.8667 23.0666ZM11.1334 23.7999L11.0001 23.9999L11.2668 24.0666L11.1334 23.7999Z" fill="#FF593E"/>
<path fill-rule="evenodd" clip-rule="evenodd" d="M22 11.8667L21.4 11.3334L22.2 11.0667L22 11.8667ZM21.2001 13.6001L21.5334 13.7334V13.3334L21.2001 13.6001ZM21.6 13.6667L22.1334 13.8L21.7334 14.2667L21.6 13.6667ZM14.4 15.3334L14.6667 14.7334L15.0667 15.4L14.4 15.3334ZM15.0001 16.2L15.1334 16L15.3334 16.2667L15.0001 16.2ZM14.6667 15.6667L14.4667 16.0667L15 16.1334L14.6667 15.6667ZM16.5333 16.6001L17 16.7334L16.6667 17.1334L16.5333 16.6001ZM14.8 16.7334L14.4 16.6667L14.4667 17.1334L14.8 16.7334ZM20.6001 13.2667L20.5334 13.8667L21.1334 13.6667L20.6001 13.2667ZM21.1334 12.2667L20.6 11.8001L21.4 11.5334L21.1334 12.2667ZM18.4667 13.7333L19.1333 13.8667L18.9333 13.1333L18.4667 13.7333ZM21.0001 14.0001L21.3334 14.0667L21.0668 14.3334L21.0001 14.0001Z" fill="#FF593E"/>
<path fill-rule="evenodd" clip-rule="evenodd" d="M21.7333 12.2L21.2667 11.8L21.9333 11.6L21.7333 12.2ZM16.7333 14.2L17 14.7333L17.4 14.2H16.7333ZM20.4667 15.6L20.6667 15.6667L20.5333 15.9334L20.4667 15.6ZM15.8 16.6667L16 16.7333L15.8667 17L15.8 16.6667ZM14.8667 14.6L15.4667 15.1334L15.7334 14.2667L14.8667 14.6ZM17.4667 17.8L17.2667 17.5334L17.6 17.4L17.4667 17.8ZM21.7333 15.4L22 15.6L22.1333 15.3333L21.7333 15.4ZM19.4667 14.6667L19.2667 14.2667L19.8 14.3333L19.4667 14.6667ZM19.9333 13.7334L19.6667 14.0667L20.1333 14.1334L19.9333 13.7334ZM19.4001 13.9334L19.2001 13.5334H19.7334L19.4001 13.9334ZM18.6 13.9333L18.8 14.3333L19.1334 14L18.6 13.9333ZM18.5334 15L18.8001 15.0667L18.6001 15.2667L18.5334 15ZM19.8667 15.4L19.6 15.3333L19.6667 15.6667L19.8667 15.4ZM17.8 18L17.6 17.8L17.9333 17.6667L17.8 18ZM17.5333 16.8667L17.4667 17.0667L17.7333 17.1333L17.5333 16.8667ZM16.1333 16.2L16.2667 16.4667H15.8667L16.1333 16.2Z" fill="#FF593E"/>
<path fill-rule="evenodd" clip-rule="evenodd" d="M15.7334 16.8L16.0001 16.5333L16.0667 17L15.7334 16.8ZM16.6001 18.3334V18L16.9334 18.2L16.6001 18.3334Z" fill="#FF593E"/>
<path fill-rule="evenodd" clip-rule="evenodd" d="M23.8666 14.2L24.4666 14.4L24 14.9333L23.8666 14.2ZM15.8 16.5333L15.9333 16.7333L16.0667 16.4666L15.8 16.5333ZM14.3334 17.6666L13.9333 17.9333L14.4667 18.1333L14.3334 17.6666ZM15.6 18.1333L15.3333 17.9333L15.6666 17.8L15.6 18.1333ZM16.7333 17.2L17 17.4L17.0667 17.0666L16.7333 17.2ZM15.8 18.8666L15.6 18.6666L15.9333 18.5333L15.8 18.8666ZM15.9333 17.1333L15.8 17.3333H16.1333L15.9333 17.1333ZM20 14.8L19.7334 14.7333L19.8 15.0666L20 14.8ZM16.2667 17.9333L16.5333 17.9999L16.3333 18.2666L16.2667 17.9333Z" fill="#FF593E"/>
<path fill-rule="evenodd" clip-rule="evenodd" d="M21.6667 20.1333L22.0001 20.4L22.1334 20L21.6667 20.1333ZM23.0668 20.4667L23.2668 20.2L23.4668 20.6L23.0668 20.4667ZM23.8668 20.9334L24.1335 20.8001L23.8668 20.6001V20.9334ZM25.0001 21.2666L24.7335 21.6L24.5335 21.2L25.0001 21.2666ZM30.0001 22.3333L29.6668 22.8L29.4001 22.2L30.0001 22.3333ZM30.9334 22.8L30.3334 22L29.7334 22.8H30.9334ZM29.4668 22.8L28.6668 22.7334L29.2668 22L29.4668 22.8ZM23.5335 21.2L23.2001 20.8L23.8001 20.6L23.5335 21.2Z" fill="#AF2500"/>
<path fill-rule="evenodd" clip-rule="evenodd" d="M25.0667 18.7333L24.9334 18.4L24.8 18.7333H25.0667ZM22.6666 18.8L22.5333 18.5333L22.4 18.8H22.6666ZM29 19.3333L29.2667 19.2L29 19.0666V19.3333ZM21.8 19.5333L22 19.4L21.8 19.2V19.5333ZM23.4 21.4L23.8 21L24 21.6667L23.4 21.4ZM28.6 22.0666L28.8 22.7333L27.9334 22.6666L28.6 22.0666ZM24.8001 21.9333L24.6667 21.2L24.0667 21.6666L24.8001 21.9333ZM25.9334 21.5999L26.2 22.2666L25.4 22.1333L25.9334 21.5999ZM24.2 20.9333L24.3334 21.2666L23.9334 21.2L24.2 20.9333ZM23.2666 19.4667L23.0666 19.2667L23.3333 19.2L23.2666 19.4667ZM23.8666 19.7333L23.5333 19.6666L23.6 20.0666L23.8666 19.7333ZM24.6666 19.4666V19.7333L24.4 19.5333L24.6666 19.4666ZM27.7334 18.7999L27.8667 19.0666L27.6 19.1333L27.7334 18.7999ZM25.1334 19.3333L25.3334 19.0666L25.4667 19.4L25.1334 19.3333ZM26.8667 22.4666L27.4667 22.5999L27.3333 21.9333L26.8667 22.4666ZM23.5333 20.6L23.8667 20.0666L24.2 20.6666L23.5333 20.6ZM27.4667 19.9333L27.4 19.7333L27.2 19.9333H27.4667ZM29.0667 20.6666L28.7333 20.9999L28.6 20.5333L29.0667 20.6666ZM27.0667 19.4L27.2 19.5333L27.2667 19.3333L27.0667 19.4ZM26.6667 18.8666L26.5334 18.8L26.6667 18.6V18.8666ZM29.2 22.0666L29.3334 21.4L28.6 21.6L29.2 22.0666ZM26.8666 22.4L26.2 22.3333L26.3333 21.8L26.7333 21.6667L26.8666 22.4Z" fill="#AF2500"/>
<path fill-rule="evenodd" clip-rule="evenodd" d="M30.2001 19.9334L30.6001 19.8L30.4668 20.2667L30.2001 19.9334ZM29.6001 20.8667L29.1334 20.6001L29.7334 20.2667L29.6001 20.8667ZM27.2668 21.6L26.7334 21.8L26.6001 21.4667L26.8668 21.1334L27.2668 21.6ZM27.8001 22.6001L27.4001 22.4001L27.9334 21.8L28.2001 22.5334L27.8001 22.6001ZM27.9334 21.2L28.4001 21.9333L28.8001 21.6667L29.0001 21.2H27.9334ZM29.3334 21.7334L29.7334 22.4667L30.3334 21.7334H29.3334ZM24.8 21.9334L25.2667 21.4001L25.5334 22.1334L24.8 21.9334ZM26.1334 20.6667L25.4667 20.8667L25.9334 21.4667L26.1334 20.6667Z" fill="#AF2500"/>
<path fill-rule="evenodd" clip-rule="evenodd" d="M32.8001 20.1333L33.2668 20L33.0668 20.5333L32.8001 20.1333ZM27.7334 22.0666L26.9334 21.8L27.7334 21.1333V22.0666ZM22.5334 20.9333L23.2001 21.2666L23.1335 20.6666L22.5334 20.9333ZM26.8001 20.5333L26.2668 20.7333L26.4001 20.0666L26.8001 20.5333ZM27.8668 20.1333L28.0668 20.3333L28.2001 20.0666L27.8668 20.1333ZM27.0001 20.1333L27.0668 20.4H26.7334L27.0001 20.1333ZM25.7334 22V21.6666L25.4001 21.7333L25.7334 22ZM24.6001 21.0666L24.4667 20.5333L25.0667 20.6667L24.6001 21.0666Z" fill="#AF2500"/>
<path fill-rule="evenodd" clip-rule="evenodd" d="M26.1334 20.2L26.0001 20.5333L26.3334 20.4666L26.1334 20.2ZM28.1334 21.1333L27.6667 20.8667L28.2 20.4667L28.1334 21.1333ZM27.4001 21.2L26.9334 20.8666L27.4667 20.5333L27.4001 21.2ZM29.0668 21.5333L29.5334 21.8666L29.6001 21.2L29.0668 21.5333ZM25.2667 21.0666L25.2001 20.8L25.4667 20.8666L25.2667 21.0666ZM26.7334 21.5333L26.1334 21.6L26.2001 20.7333L26.8667 21.2666L26.7334 21.5333Z" fill="#AF2500"/>
<path fill-rule="evenodd" clip-rule="evenodd" d="M35.1334 19.2L35.0001 18.8667L35.3334 18.9333L35.1334 19.2ZM25.7334 19.4L26.0001 19.3333L25.8001 19.0666L25.7334 19.4ZM26.4001 19.4667L26.5334 19.2667L26.3334 19.2L26.4001 19.4667ZM25.8001 19.9333L25.6667 20.1333L25.5334 19.9333H25.8001ZM26.2668 21.5333L26.0668 21.6666V21.4666L26.2668 21.5333ZM24.9334 21.4667L24.8001 21.2667L25.1334 21.2L24.9334 21.4667ZM22.7334 20.0666L22.6667 20.4L23.0001 20.3333L22.7334 20.0666ZM24.4668 20V20.4L24.0668 20.2L24.4668 20ZM28.6668 22.0667L28.2668 21.5333L27.9334 22.2L28.6668 22.0667ZM25.5334 20.6667V21L25.2001 20.8667L25.5334 20.6667ZM22.4668 19.5334L22.6001 19.8L22.7334 19.4667L22.4668 19.5334ZM30.2001 19.4667L30.0667 19.2H30.3334L30.2001 19.4667ZM26.2001 19.9334L26.1334 19.6667L26.4001 19.7334L26.2001 19.9334ZM22.4667 27.4667L21.5334 27.6667L22.1334 28.5334L22.4667 27.4667ZM29.6001 20.0666H29.2668L29.4001 19.7333L29.6001 20.0666ZM33.0668 21.4L33.7334 21.3333L33.3335 20.7333L33.0668 21.4ZM32.7334 19.1333L32.8 19.4L33 19.2L32.7334 19.1333ZM20.0001 28.4667L20.3334 29.1334L19.4668 29.0667L20.0001 28.4667ZM31.7334 22.3333L31.8667 21.6667L31.1334 21.8667L31.7334 22.3333ZM30.6001 21.9333L30.5335 22.2666L30.2001 22L30.6001 21.9333ZM30.7334 21.4666L30.8668 21.0666L30.4001 21.2L30.7334 21.4666ZM22.6001 23.6667L22.8001 24.7333L21.8001 24.2L22.6001 23.6667ZM22.5334 23.6L22.2668 22.7333L21.8001 23.4666L22.5334 23.6ZM20.1334 23L20.3334 23.3333H19.8668L20.1334 23ZM21.2001 23L21.0001 22.6667L20.7334 23H21.2001ZM18.7334 28.9333L18.8001 29.5333L18.1334 29.2666L18.7334 28.9333ZM19.0668 29.2L19.3335 29.4L19.4001 29L19.0668 29.2ZM19.4001 28.9334L19.0001 28.6667L19.5334 28.3334L19.4001 28.9334ZM32.4001 20.8L32.6001 20.4H32.0667L32.4001 20.8ZM34.1334 19.1334L34.0668 19.4667L33.8001 19.2L34.1334 19.1334ZM19.6667 25.7333L19.5334 25.4L19.2668 25.6666L19.6667 25.7333ZM19.3334 23.9333L19.0667 24.0667L19.1334 23.6667L19.3334 23.9333Z" fill="#AF2500"/>
<path fill-rule="evenodd" clip-rule="evenodd" d="M31.2 20.2667L31.4667 20.5333L31.6 20.1333L31.2 20.2667ZM31.8667 20.9334L31.1334 20.6V21.5334L31.8667 20.9334ZM30.4667 20.8L30.2667 21.6667L29.4667 21.0667L30.4667 20.8ZM20.4001 22.3333L20.2667 22.0667L20.0001 22.3333H20.4001ZM21.7334 23.2L22.0667 23.8667L21.2667 23.8L21.7334 23.2ZM20.8667 23.7334L21.2001 24.4001L20.4001 24.2667L20.8667 23.7334ZM32.1334 22L32.7334 22.2667L32.1334 22.7333V22ZM36.1334 21.5333L35.5334 21.2L35.4 21.9333L36.1334 21.5333ZM30.9334 21.4667L31.2 22.0667H30.6667L30.9334 21.4667ZM19.7334 24L19.5334 24.1333L19.7334 24.3333V24ZM20.2001 25.3334L20.3334 25.4667L20.1334 25.5334L20.2001 25.3334ZM17.5334 26.4L17.6667 26.2H17.4001L17.5334 26.4ZM19.0667 22.6L18.9334 22.8L18.8 22.6H19.0667ZM19.4667 21.6667L19.6 21.4667L19.3334 21.4L19.4667 21.6667ZM18.6667 25.7334L18.8667 25.9334L18.6001 26.0667L18.6667 25.7334ZM19.7334 25L19.4667 24.8L19.3334 25.2L19.7334 25ZM17.5334 26.7333L17.4001 26.9333L17.2667 26.7333H17.5334ZM19.6 29.8L19.8667 30.4L19.1334 30.3334L19.6 29.8ZM21.4667 25.9334L21.1334 25.7334L21.0667 26.2L21.4667 25.9334ZM21.8001 25.7334L22.3334 26.0667L21.7334 26.4001L21.8001 25.7334ZM22.5334 27L21.9334 26.8L22.0667 27.5334L22.5334 27ZM33.6667 22.0667L33.4667 22.3333L33.3334 22L33.6667 22.0667ZM33.8667 22.4667L34.2667 22.3334L33.7333 22.1334L33.8667 22.4667ZM30.9334 21.0001L30.4667 20.8667L30.8667 20.4667L30.9334 21.0001Z" fill="#AF2500"/>
<path fill-rule="evenodd" clip-rule="evenodd" d="M24.6001 20L25.1334 20.2L25.0668 19.5333L24.6001 20ZM31.1334 19.9333L31.5334 20.0667L31.4667 19.6L31.1334 19.9333ZM33.8667 22.2L33.4667 21.6666L34.2 21.6L33.8667 22.2Z" fill="#AF2500"/>
<path fill-rule="evenodd" clip-rule="evenodd" d="M33.9334 20.6667L33.8 20.4667L33.6667 20.6667H33.9334ZM33.7334 21.8666L34.1334 21.3333L34.4001 22L33.7334 21.8666ZM31.8 22.2667L32.2 22.4L31.8667 22.6667L31.8 22.2667ZM32.7334 22.6666L33.5334 22.5333L33.2667 22L32.7334 22.6666ZM31.8 22.8H31L31.1334 22L31.8 22.8ZM20.6667 22.8L20.5334 22.5333L20.2667 22.8H20.6667ZM21.7334 25.8666L21.5334 26V25.6666L21.7334 25.8666ZM20.9334 21.7333L21.1334 21.5333L20.8001 21.4667L20.9334 21.7333ZM20.9333 22.3333L20.7333 22.2L21 22.0666L20.9333 22.3333ZM22.0667 24.6L21.4001 24.4667L21.6667 25.2667L22.0667 24.6ZM20.2667 26.8667L20.6001 26.8L20.4667 27.1333L20.2667 26.8667ZM22.6001 26.8L22.6667 26.1333L21.9334 26.4L22.6001 26.8ZM20.4667 24.5333L20.6667 25L20.0667 24.9333L20.4667 24.5333ZM21.3334 27.4667L21.8001 27.2667L21.4001 26.8L21.3334 27.4667ZM20.3334 26.2667L19.8667 26.6L19.8001 25.9333L20.3334 26.2667ZM21.0001 26.9333L21.4 26.6L20.8667 26.3333L21.0001 26.9333ZM20.8667 28.6L20.4001 28.9333L20.3334 28.2667L20.8667 28.6ZM22.8 24.9333L21.8667 25.3333L22.7334 26.0667L22.8 24.9333ZM21.8667 21.8666L22.2 22.6666L21.2 22.6L21.8667 21.8666ZM20.0667 24.5333L20.4 24.2L19.9334 24L20.0667 24.5333ZM20.8667 23.4L21.3334 23.2667L21.2667 23.8667L20.8667 23.4ZM20.0667 22.6L19.8667 22.3333L19.7334 22.6H20.0667ZM20.6001 21.4666L20.4001 21.6666L20.3334 21.4L20.6001 21.4666ZM17.7333 28.9334L17.9333 28.5334H17.4667L17.7333 28.9334ZM19.4 29.9333L19.2667 30.2667L19 29.9333H19.4ZM20.4667 29.8L20.8 29.2H20L20.4667 29.8ZM18.3334 28.8L18.2 29.1333L18 28.8H18.3334ZM19.2 29.2667L19.3334 29H19L19.2 29.2667ZM19.2 27.8666L19.4667 28L19.2667 28.2L19.2 27.8666ZM21.4667 25.3333L21 25L20.8667 25.6L21.4667 25.3333ZM20.0001 27.2667L20.2001 27.4L20.0001 27.5334V27.2667ZM34.7334 20.4667L34.8667 20.6667H34.6001L34.7334 20.4667ZM35.0667 21.2L34.8667 20.9333L34.6 21.2667L35.0667 21.2ZM20.2 28L20.4667 28.0667L20.2 28.2667V28ZM19.0001 29.8L19.1334 29.4667H18.8001L19.0001 29.8ZM19.5334 30L19.4667 29.5333L20.0001 29.7333L19.5334 30Z" fill="#AF2500"/>
<path fill-rule="evenodd" clip-rule="evenodd" d="M20.3334 19.8667L20.6001 19.9333L20.4001 20.1333L20.3334 19.8667ZM21.1334 20.3999L21.2001 20.1333L21.4001 20.3333L21.1334 20.3999ZM20.2668 20.9333L20.2001 21.2666L20.5335 21.1999L20.2668 20.9333ZM19.9334 28.6L20.0668 28.8666H19.8001L19.9334 28.6ZM18.8001 29.1333L18.9334 28.9333H18.6001L18.8001 29.1333ZM20.4667 30.2667L20.3334 29.6667L21.0667 29.8667L20.4667 30.2667ZM19.0668 29.9333H18.8001L19.0001 29.6667L19.0668 29.9333ZM20.8001 20.8667L20.7335 21.1333L21.0001 21.0667L20.8001 20.8667ZM20.8001 20.4L20.6667 20.6666H21.0001L20.8001 20.4ZM21.5334 22.9999L21.6668 22.7999L21.8668 23.0666L21.5334 22.9999ZM21.7334 21.6667L21.3335 21.5333L21.4001 22.0667L21.7334 21.6667ZM21.4668 20.9333L21.6668 21.5999L20.8668 21.3999L21.4668 20.9333Z" fill="#AF2500"/>
<path fill-rule="evenodd" clip-rule="evenodd" d="M21.4667 20.4667V20.9334L21.0667 20.6667L21.4667 20.4667ZM20.4667 27.4667L21 27.5334L20.6 28.0667L20.4667 27.4667Z" fill="#AF2500"/>
<path fill-rule="evenodd" clip-rule="evenodd" d="M33.3334 19.5333L33.6001 19.6V19.3333L33.3334 19.5333ZM32.8667 21.2L32.6001 21.0667L32.8001 20.8L32.8667 21.2ZM32.2667 21.4667L31.7334 21.2667L32.2 20.8667L32.2667 21.4667ZM20.6667 27.4L21.1334 27.2667L20.7334 26.8667L20.6667 27.4ZM21.3334 27.7333L20.8001 28L21.3334 28.2667V27.7333ZM20.4667 28.0666L20.7334 27.9333V28.2L20.4667 28.0666ZM21.0667 28.7333L21.7334 28.4L21.8001 29.0666L21.0667 28.7333ZM19.2667 28.4L18.7334 28.5334L18.8667 28L19.2667 28.4ZM32.8001 21.8L32.4001 21.6V22.0667L32.8001 21.8ZM33.3334 21.4L33.1334 22L32.6001 21.5333L33.3334 21.4ZM35.3333 22L34.7333 21.5333V22.2L35.3333 22ZM19.8667 27.9333L19.6001 28L19.6667 27.7333L19.8667 27.9333ZM20.4667 30.2667L20.0667 29.8L19.8 30.4L20.4667 30.2667ZM20.9334 28.9334L21.7334 29.2L21.0001 29.8L20.9334 28.9334ZM18.1334 27.8667L17.8 27.8L17.9334 28.1333L18.1334 27.8667ZM32.0667 19.4667L32.2667 19.6667L31.9334 19.7334L32.0667 19.4667ZM36.2667 21.4666V20.7333L35.5333 21.1333L36.2667 21.4666ZM35.8667 20.8666L35.2668 20.6666L35.8667 20.2666V20.8666Z" fill="#AF2500"/>
<path fill-rule="evenodd" clip-rule="evenodd" d="M38.6667 18.1333L38.5334 17.9333L38.8667 17.8667L38.6667 18.1333ZM36.6667 18.6667L36.4667 18.4667L36.7333 18.3333L36.6667 18.6667ZM35.3333 19.9999L34.9333 20.1999L35.3333 20.5333V19.9999ZM36 20.9333L36.5334 21.1333L36.4667 20.4667L36 20.9333ZM36.0667 20L36.4 19.8667L36.1334 19.6L36.0667 20ZM36.9333 19.6666L36.6 19.8666L37 20.0666L36.9333 19.6666ZM38.5333 18.7333L38.3333 19.2L38 18.7333H38.5333ZM36.7334 21L37.3334 20.4L36.4 20.0666L36.7334 21ZM37.2 19.5333L38 19.6666L37.4 20.4L37.2 19.5333ZM37.8 19.2666L38.0667 19.4666L38.1333 19.0666L37.8 19.2666ZM36.9334 19.5333L36.4667 19.4666L36.7334 18.9999L36.9334 19.5333ZM37.4 18.8L37.8 18.8667L37.6 18.4L37.4 18.8ZM38.4667 18.2L38.7334 18.4L38.4 18.5333L38.4667 18.2ZM34.6 21.0666L34.5334 20.6666L34.1334 21L34.6 21.0666ZM34.2 21.2666L33.9333 21.6L33.7333 21.1333L34.2 21.2666ZM34.6 21.8667L34.4667 21.4667L34.1334 21.7333L34.6 21.8667ZM35.1333 21.0666L35.2 21.4666L34.7333 21.3999L35.1333 21.0666ZM35.4 19.5333L35.6667 19.6667V19.3333L35.4 19.5333ZM34.4 20L34.2 19.9333L34.4 19.6667V20ZM17.7334 27.8L17.4 27.7333L17.4667 28.0666L17.7334 27.8ZM17.9334 28.5333L18.2 28.4V28.6666L17.9334 28.5333ZM19.5334 28.4L19.8 28.5333L19.8667 28.2L19.5334 28.4ZM18.3334 26.8666L18.5334 27.1333L18.1334 27.2L18.3334 26.8666ZM20.3333 28.0666L20.4667 27.7333L20.0667 27.6666L20.3333 28.0666ZM19.6667 27.9333L19.9333 28.0666L19.7333 28.2666L19.6667 27.9333ZM20.6667 26.3333L20.8 25.9333L20.3334 26L20.6667 26.3333ZM19.3334 26.5333L19.6667 26.6L19.4001 26.9333L19.3334 26.5333ZM18.7334 27.9333L18.4 27.8666L18.5334 28.2L18.7334 27.9333ZM18.7334 26.0666L19.0667 26.1333L18.8 26.4L18.7334 26.0666ZM19.5334 27.6L19.4667 27.4L19.2 27.5333L19.5334 27.6ZM22.4667 20.8667L21.8667 20.6L22.4001 20.4L22.4667 20.8667ZM34 20.4666L34.2 20.5333V20.2666L34 20.4666ZM18.8 27.0667L18.6 27.1333V26.8L18.8 27.0667Z" fill="#AF2500"/>
<path d="M35.0001 33.4C33.8001 33.4 32.8001 31.7334 32.8001 29.8667C32.8001 28 33.8001 26.3334 35.0001 26.3334C35.2001 26.3334 35.4667 26.4 35.6667 26.4667V25.7334C35.4667 25.6667 35.2667 25.6 35.0667 25.6C33.4667 25.6 32.2001 27.5334 32.2001 29.8667C32.2001 32.2 33.4667 34.1334 35.0667 34.1334H35.3334L35.4001 33.4667C35.2001 33.3334 35.0667 33.4 35.0001 33.4Z" fill="white"/>
<path d="M37.8667 29.8C37.8667 27.8 36.9334 26.0667 35.6001 25.6667V26.4C36.4667 26.8667 37.1334 28.2 37.1334 29.8C37.1334 31.5333 36.3334 33 35.2667 33.2667L35.2001 33.9333C36.7334 33.8 37.8667 32 37.8667 29.8Z" fill="#CCCCCC"/>
</g>
<defs>
<linearGradient id="paint0_linear" x1="21.2624" y1="48.9276" x2="26.8706" y2="44.2638" gradientUnits="userSpaceOnUse">
<stop stop-color="#BC5A32" stop-opacity="0.01"/>
<stop offset="0.99" stop-color="#BC5A32"/>
</linearGradient>
<linearGradient id="paint1_linear" x1="31.1781" y1="24.8874" x2="30.1028" y2="18.9913" gradientUnits="userSpaceOnUse">
<stop stop-color="#BC5A32" stop-opacity="0.01"/>
<stop offset="0.99" stop-color="#BC5A32"/>
</linearGradient>
<linearGradient id="paint2_linear" x1="17.3664" y1="34.782" x2="17.6093" y2="31.2313" gradientUnits="userSpaceOnUse">
<stop stop-color="#CC7A5E" stop-opacity="0.01"/>
<stop offset="0.924" stop-color="#AA5F4B"/>
</linearGradient>
</defs>
</svg>
