<svg width="416" height="500" viewBox="0 0 416 500" fill="none" xmlns="http://www.w3.org/2000/svg">
<g filter="url(#filter0_d)">
<rect x="120" y="80" width="176" height="324" rx="20" fill="white"/>
</g>
<g filter="url(#filter1_d)">
<rect x="104" y="68" width="208" height="324" rx="20" fill="white"/>
</g>
<g filter="url(#filter2_d)">
<rect x="88" y="56" width="240" height="324" rx="20" fill="white"/>
</g>
<rect x="120" y="300" width="176" height="48" rx="10" fill="#503E9D"/>
<path d="M279.92 323.354L276.458 319.625L277.966 318L284 324.5L277.966 331L276.458 329.375L279.913 325.652H268V323.354H279.92Z" fill="white"/>
<path d="M177.242 324.273C177.242 326.164 176.773 327.617 175.836 328.633C174.898 329.648 173.555 330.156 171.805 330.156C170.055 330.156 168.711 329.648 167.773 328.633C166.836 327.617 166.367 326.159 166.367 324.258C166.367 322.357 166.836 320.906 167.773 319.906C168.716 318.901 170.065 318.398 171.82 318.398C173.576 318.398 174.917 318.904 175.844 319.914C176.776 320.924 177.242 322.378 177.242 324.273ZM168.906 324.273C168.906 325.549 169.148 326.51 169.633 327.156C170.117 327.802 170.841 328.125 171.805 328.125C173.737 328.125 174.703 326.841 174.703 324.273C174.703 321.701 173.742 320.414 171.82 320.414C170.857 320.414 170.13 320.74 169.641 321.391C169.151 322.036 168.906 322.997 168.906 324.273ZM184.297 321.102C184.62 321.102 184.888 321.125 185.102 321.172L184.922 323.406C184.729 323.354 184.495 323.328 184.219 323.328C183.458 323.328 182.865 323.523 182.438 323.914C182.016 324.305 181.805 324.852 181.805 325.555V330H179.422V321.266H181.227L181.578 322.734H181.695C181.966 322.245 182.331 321.852 182.789 321.555C183.253 321.253 183.755 321.102 184.297 321.102ZM189.453 330.156C188.427 330.156 187.62 329.758 187.031 328.961C186.448 328.164 186.156 327.06 186.156 325.648C186.156 324.216 186.453 323.102 187.047 322.305C187.646 321.503 188.469 321.102 189.516 321.102C190.615 321.102 191.453 321.529 192.031 322.383H192.109C191.99 321.732 191.93 321.151 191.93 320.641V317.844H194.32V330H192.492L192.031 328.867H191.93C191.388 329.727 190.562 330.156 189.453 330.156ZM190.289 328.258C190.898 328.258 191.344 328.081 191.625 327.727C191.911 327.372 192.068 326.771 192.094 325.922V325.664C192.094 324.727 191.948 324.055 191.656 323.648C191.37 323.242 190.901 323.039 190.25 323.039C189.719 323.039 189.305 323.266 189.008 323.719C188.716 324.167 188.57 324.82 188.57 325.68C188.57 326.539 188.719 327.185 189.016 327.617C189.312 328.044 189.737 328.258 190.289 328.258ZM200.43 322.797C199.924 322.797 199.529 322.958 199.242 323.281C198.956 323.599 198.792 324.052 198.75 324.641H202.094C202.083 324.052 201.93 323.599 201.633 323.281C201.336 322.958 200.935 322.797 200.43 322.797ZM200.766 330.156C199.359 330.156 198.26 329.768 197.469 328.992C196.677 328.216 196.281 327.117 196.281 325.695C196.281 324.232 196.646 323.102 197.375 322.305C198.109 321.503 199.122 321.102 200.414 321.102C201.648 321.102 202.609 321.453 203.297 322.156C203.984 322.859 204.328 323.831 204.328 325.07V326.227H198.695C198.721 326.904 198.922 327.432 199.297 327.812C199.672 328.193 200.198 328.383 200.875 328.383C201.401 328.383 201.898 328.328 202.367 328.219C202.836 328.109 203.326 327.935 203.836 327.695V329.539C203.419 329.747 202.974 329.901 202.5 330C202.026 330.104 201.448 330.156 200.766 330.156ZM211.141 321.102C211.464 321.102 211.732 321.125 211.945 321.172L211.766 323.406C211.573 323.354 211.339 323.328 211.062 323.328C210.302 323.328 209.708 323.523 209.281 323.914C208.859 324.305 208.648 324.852 208.648 325.555V330H206.266V321.266H208.07L208.422 322.734H208.539C208.81 322.245 209.174 321.852 209.633 321.555C210.096 321.253 210.599 321.102 211.141 321.102ZM225.75 330H223.367V324.898C223.367 324.268 223.255 323.797 223.031 323.484C222.807 323.167 222.451 323.008 221.961 323.008C221.294 323.008 220.812 323.232 220.516 323.68C220.219 324.122 220.07 324.859 220.07 325.891V330H217.688V321.266H219.508L219.828 322.383H219.961C220.227 321.961 220.591 321.643 221.055 321.43C221.523 321.211 222.055 321.102 222.648 321.102C223.664 321.102 224.435 321.378 224.961 321.93C225.487 322.477 225.75 323.268 225.75 324.305V330ZM230.102 325.617C230.102 326.482 230.242 327.135 230.523 327.578C230.81 328.021 231.273 328.242 231.914 328.242C232.549 328.242 233.005 328.023 233.281 327.586C233.562 327.143 233.703 326.487 233.703 325.617C233.703 324.753 233.562 324.104 233.281 323.672C233 323.24 232.539 323.023 231.898 323.023C231.263 323.023 230.805 323.24 230.523 323.672C230.242 324.099 230.102 324.747 230.102 325.617ZM236.141 325.617C236.141 327.039 235.766 328.151 235.016 328.953C234.266 329.755 233.221 330.156 231.883 330.156C231.044 330.156 230.305 329.974 229.664 329.609C229.023 329.24 228.531 328.711 228.188 328.023C227.844 327.336 227.672 326.534 227.672 325.617C227.672 324.19 228.044 323.081 228.789 322.289C229.534 321.497 230.581 321.102 231.93 321.102C232.768 321.102 233.508 321.284 234.148 321.648C234.789 322.013 235.281 322.536 235.625 323.219C235.969 323.901 236.141 324.701 236.141 325.617ZM245.289 330L244.617 326.945L243.711 323.086H243.656L242.062 330H239.5L237.016 321.266H239.391L240.398 325.133C240.56 325.826 240.724 326.781 240.891 328H240.938C240.958 327.604 241.049 326.977 241.211 326.117L241.336 325.453L242.414 321.266H245.039L246.062 325.453C246.083 325.568 246.115 325.737 246.156 325.961C246.203 326.185 246.247 326.424 246.289 326.68C246.331 326.93 246.367 327.177 246.398 327.422C246.435 327.661 246.456 327.854 246.461 328H246.508C246.555 327.625 246.638 327.112 246.758 326.461C246.878 325.805 246.964 325.362 247.016 325.133L248.062 321.266H250.398L247.883 330H245.289Z" fill="#F7FAFC"/>
<path d="M131.629 246V237.434H132.625V246H131.629ZM136.908 245.314C137.08 245.314 137.246 245.303 137.406 245.279C137.566 245.252 137.693 245.225 137.787 245.197V245.941C137.682 245.992 137.525 246.033 137.318 246.064C137.115 246.1 136.932 246.117 136.768 246.117C135.525 246.117 134.904 245.463 134.904 244.154V240.334H133.984V239.865L134.904 239.461L135.314 238.09H135.877V239.578H137.74V240.334H135.877V244.113C135.877 244.5 135.969 244.797 136.152 245.004C136.336 245.211 136.588 245.314 136.908 245.314ZM143.166 246H142.193V239.578H143.166V246ZM142.111 237.838C142.111 237.615 142.166 237.453 142.275 237.352C142.385 237.246 142.521 237.193 142.686 237.193C142.842 237.193 142.977 237.246 143.09 237.352C143.203 237.457 143.26 237.619 143.26 237.838C143.26 238.057 143.203 238.221 143.09 238.33C142.977 238.436 142.842 238.488 142.686 238.488C142.521 238.488 142.385 238.436 142.275 238.33C142.166 238.221 142.111 238.057 142.111 237.838ZM149.371 244.248C149.371 244.846 149.148 245.307 148.703 245.631C148.258 245.955 147.633 246.117 146.828 246.117C145.977 246.117 145.312 245.982 144.836 245.713V244.811C145.145 244.967 145.475 245.09 145.826 245.18C146.182 245.27 146.523 245.314 146.852 245.314C147.359 245.314 147.75 245.234 148.023 245.074C148.297 244.91 148.434 244.662 148.434 244.33C148.434 244.08 148.324 243.867 148.105 243.691C147.891 243.512 147.469 243.301 146.84 243.059C146.242 242.836 145.816 242.643 145.562 242.479C145.312 242.311 145.125 242.121 145 241.91C144.879 241.699 144.818 241.447 144.818 241.154C144.818 240.631 145.031 240.219 145.457 239.918C145.883 239.613 146.467 239.461 147.209 239.461C147.9 239.461 148.576 239.602 149.236 239.883L148.891 240.674C148.246 240.408 147.662 240.275 147.139 240.275C146.678 240.275 146.33 240.348 146.096 240.492C145.861 240.637 145.744 240.836 145.744 241.09C145.744 241.262 145.787 241.408 145.873 241.529C145.963 241.65 146.105 241.766 146.301 241.875C146.496 241.984 146.871 242.143 147.426 242.35C148.188 242.627 148.701 242.906 148.967 243.188C149.236 243.469 149.371 243.822 149.371 244.248ZM158.025 246L157.832 245.086H157.785C157.465 245.488 157.145 245.762 156.824 245.906C156.508 246.047 156.111 246.117 155.635 246.117C154.998 246.117 154.498 245.953 154.135 245.625C153.775 245.297 153.596 244.83 153.596 244.225C153.596 242.928 154.633 242.248 156.707 242.186L157.797 242.15V241.752C157.797 241.248 157.688 240.877 157.469 240.639C157.254 240.396 156.908 240.275 156.432 240.275C155.896 240.275 155.291 240.439 154.615 240.768L154.316 240.023C154.633 239.852 154.979 239.717 155.354 239.619C155.732 239.521 156.111 239.473 156.49 239.473C157.256 239.473 157.822 239.643 158.189 239.982C158.561 240.322 158.746 240.867 158.746 241.617V246H158.025ZM155.828 245.314C156.434 245.314 156.908 245.148 157.252 244.816C157.6 244.484 157.773 244.02 157.773 243.422V242.842L156.801 242.883C156.027 242.91 155.469 243.031 155.125 243.246C154.785 243.457 154.615 243.787 154.615 244.236C154.615 244.588 154.721 244.855 154.932 245.039C155.146 245.223 155.445 245.314 155.828 245.314ZM164.846 246H163.873V236.883H164.846V246ZM167.881 246H166.908V239.578H167.881V246ZM166.826 237.838C166.826 237.615 166.881 237.453 166.99 237.352C167.1 237.246 167.236 237.193 167.4 237.193C167.557 237.193 167.691 237.246 167.805 237.352C167.918 237.457 167.975 237.619 167.975 237.838C167.975 238.057 167.918 238.221 167.805 238.33C167.691 238.436 167.557 238.488 167.4 238.488C167.236 238.488 167.1 238.436 166.99 238.33C166.881 238.221 166.826 238.057 166.826 237.838ZM178.129 246V241.822C178.129 241.311 178.02 240.928 177.801 240.674C177.582 240.416 177.242 240.287 176.781 240.287C176.176 240.287 175.729 240.461 175.439 240.809C175.15 241.156 175.006 241.691 175.006 242.414V246H174.033V241.822C174.033 241.311 173.924 240.928 173.705 240.674C173.486 240.416 173.145 240.287 172.68 240.287C172.07 240.287 171.623 240.471 171.338 240.838C171.057 241.201 170.916 241.799 170.916 242.631V246H169.943V239.578H170.734L170.893 240.457H170.939C171.123 240.145 171.381 239.9 171.713 239.725C172.049 239.549 172.424 239.461 172.838 239.461C173.842 239.461 174.498 239.824 174.807 240.551H174.854C175.045 240.215 175.322 239.949 175.686 239.754C176.049 239.559 176.463 239.461 176.928 239.461C177.654 239.461 178.197 239.648 178.557 240.023C178.92 240.395 179.102 240.99 179.102 241.811V246H178.129ZM182.084 246H181.111V239.578H182.084V246ZM181.029 237.838C181.029 237.615 181.084 237.453 181.193 237.352C181.303 237.246 181.439 237.193 181.604 237.193C181.76 237.193 181.895 237.246 182.008 237.352C182.121 237.457 182.178 237.619 182.178 237.838C182.178 238.057 182.121 238.221 182.008 238.33C181.895 238.436 181.76 238.488 181.604 238.488C181.439 238.488 181.303 238.436 181.193 238.33C181.084 238.221 181.029 238.057 181.029 237.838ZM186.221 245.314C186.393 245.314 186.559 245.303 186.719 245.279C186.879 245.252 187.006 245.225 187.1 245.197V245.941C186.994 245.992 186.838 246.033 186.631 246.064C186.428 246.1 186.244 246.117 186.08 246.117C184.838 246.117 184.217 245.463 184.217 244.154V240.334H183.297V239.865L184.217 239.461L184.627 238.09H185.189V239.578H187.053V240.334H185.189V244.113C185.189 244.5 185.281 244.797 185.465 245.004C185.648 245.211 185.9 245.314 186.221 245.314ZM191.102 246.117C190.152 246.117 189.402 245.828 188.852 245.25C188.305 244.672 188.031 243.869 188.031 242.842C188.031 241.807 188.285 240.984 188.793 240.375C189.305 239.766 189.99 239.461 190.85 239.461C191.654 239.461 192.291 239.727 192.76 240.258C193.229 240.785 193.463 241.482 193.463 242.35V242.965H189.039C189.059 243.719 189.248 244.291 189.607 244.682C189.971 245.072 190.48 245.268 191.137 245.268C191.828 245.268 192.512 245.123 193.188 244.834V245.701C192.844 245.85 192.518 245.955 192.209 246.018C191.904 246.084 191.535 246.117 191.102 246.117ZM190.838 240.275C190.322 240.275 189.91 240.443 189.602 240.779C189.297 241.115 189.117 241.58 189.062 242.174H192.42C192.42 241.561 192.283 241.092 192.01 240.768C191.736 240.439 191.346 240.275 190.838 240.275ZM199.498 245.139H199.445C198.996 245.791 198.324 246.117 197.43 246.117C196.59 246.117 195.936 245.83 195.467 245.256C195.002 244.682 194.77 243.865 194.77 242.807C194.77 241.748 195.004 240.926 195.473 240.34C195.941 239.754 196.594 239.461 197.43 239.461C198.301 239.461 198.969 239.777 199.434 240.41H199.51L199.469 239.947L199.445 239.496V236.883H200.418V246H199.627L199.498 245.139ZM197.553 245.303C198.217 245.303 198.697 245.123 198.994 244.764C199.295 244.4 199.445 243.816 199.445 243.012V242.807C199.445 241.896 199.293 241.248 198.988 240.861C198.688 240.471 198.205 240.275 197.541 240.275C196.971 240.275 196.533 240.498 196.229 240.943C195.928 241.385 195.777 242.01 195.777 242.818C195.777 243.639 195.928 244.258 196.229 244.676C196.529 245.094 196.971 245.303 197.553 245.303ZM207.678 245.314C207.85 245.314 208.016 245.303 208.176 245.279C208.336 245.252 208.463 245.225 208.557 245.197V245.941C208.451 245.992 208.295 246.033 208.088 246.064C207.885 246.1 207.701 246.117 207.537 246.117C206.295 246.117 205.674 245.463 205.674 244.154V240.334H204.754V239.865L205.674 239.461L206.084 238.09H206.646V239.578H208.51V240.334H206.646V244.113C206.646 244.5 206.738 244.797 206.922 245.004C207.105 245.211 207.357 245.314 207.678 245.314ZM210.818 246H209.846V239.578H210.818V246ZM209.764 237.838C209.764 237.615 209.818 237.453 209.928 237.352C210.037 237.246 210.174 237.193 210.338 237.193C210.494 237.193 210.629 237.246 210.742 237.352C210.855 237.457 210.912 237.619 210.912 237.838C210.912 238.057 210.855 238.221 210.742 238.33C210.629 238.436 210.494 238.488 210.338 238.488C210.174 238.488 210.037 238.436 209.928 238.33C209.818 238.221 209.764 238.057 209.764 237.838ZM221.066 246V241.822C221.066 241.311 220.957 240.928 220.738 240.674C220.52 240.416 220.18 240.287 219.719 240.287C219.113 240.287 218.666 240.461 218.377 240.809C218.088 241.156 217.943 241.691 217.943 242.414V246H216.971V241.822C216.971 241.311 216.861 240.928 216.643 240.674C216.424 240.416 216.082 240.287 215.617 240.287C215.008 240.287 214.561 240.471 214.275 240.838C213.994 241.201 213.854 241.799 213.854 242.631V246H212.881V239.578H213.672L213.83 240.457H213.877C214.061 240.145 214.318 239.9 214.65 239.725C214.986 239.549 215.361 239.461 215.775 239.461C216.779 239.461 217.436 239.824 217.744 240.551H217.791C217.982 240.215 218.26 239.949 218.623 239.754C218.986 239.559 219.4 239.461 219.865 239.461C220.592 239.461 221.135 239.648 221.494 240.023C221.857 240.395 222.039 240.99 222.039 241.811V246H221.066ZM226.762 246.117C225.812 246.117 225.062 245.828 224.512 245.25C223.965 244.672 223.691 243.869 223.691 242.842C223.691 241.807 223.945 240.984 224.453 240.375C224.965 239.766 225.65 239.461 226.51 239.461C227.314 239.461 227.951 239.727 228.42 240.258C228.889 240.785 229.123 241.482 229.123 242.35V242.965H224.699C224.719 243.719 224.908 244.291 225.268 244.682C225.631 245.072 226.141 245.268 226.797 245.268C227.488 245.268 228.172 245.123 228.848 244.834V245.701C228.504 245.85 228.178 245.955 227.869 246.018C227.564 246.084 227.195 246.117 226.762 246.117ZM226.498 240.275C225.982 240.275 225.57 240.443 225.262 240.779C224.957 241.115 224.777 241.58 224.723 242.174H228.08C228.08 241.561 227.943 241.092 227.67 240.768C227.396 240.439 227.006 240.275 226.498 240.275ZM239.447 242.783C239.447 243.83 239.184 244.648 238.656 245.238C238.129 245.824 237.4 246.117 236.471 246.117C235.896 246.117 235.387 245.982 234.941 245.713C234.496 245.443 234.152 245.057 233.91 244.553C233.668 244.049 233.547 243.459 233.547 242.783C233.547 241.736 233.809 240.922 234.332 240.34C234.855 239.754 235.582 239.461 236.512 239.461C237.41 239.461 238.123 239.76 238.65 240.357C239.182 240.955 239.447 241.764 239.447 242.783ZM234.555 242.783C234.555 243.604 234.719 244.229 235.047 244.658C235.375 245.088 235.857 245.303 236.494 245.303C237.131 245.303 237.613 245.09 237.941 244.664C238.273 244.234 238.439 243.607 238.439 242.783C238.439 241.967 238.273 241.348 237.941 240.926C237.613 240.5 237.127 240.287 236.482 240.287C235.846 240.287 235.365 240.496 235.041 240.914C234.717 241.332 234.555 241.955 234.555 242.783ZM244.053 240.334H242.418V246H241.445V240.334H240.297V239.895L241.445 239.543V239.186C241.445 237.607 242.135 236.818 243.514 236.818C243.854 236.818 244.252 236.887 244.709 237.023L244.457 237.803C244.082 237.682 243.762 237.621 243.496 237.621C243.129 237.621 242.857 237.744 242.682 237.99C242.506 238.232 242.418 238.623 242.418 239.162V239.578H244.053V240.334ZM248.119 240.334H246.484V246H245.512V240.334H244.363V239.895L245.512 239.543V239.186C245.512 237.607 246.201 236.818 247.58 236.818C247.92 236.818 248.318 236.887 248.775 237.023L248.523 237.803C248.148 237.682 247.828 237.621 247.562 237.621C247.195 237.621 246.924 237.744 246.748 237.99C246.572 238.232 246.484 238.623 246.484 239.162V239.578H248.119V240.334ZM252.004 246.117C251.055 246.117 250.305 245.828 249.754 245.25C249.207 244.672 248.934 243.869 248.934 242.842C248.934 241.807 249.188 240.984 249.695 240.375C250.207 239.766 250.893 239.461 251.752 239.461C252.557 239.461 253.193 239.727 253.662 240.258C254.131 240.785 254.365 241.482 254.365 242.35V242.965H249.941C249.961 243.719 250.15 244.291 250.51 244.682C250.873 245.072 251.383 245.268 252.039 245.268C252.73 245.268 253.414 245.123 254.09 244.834V245.701C253.746 245.85 253.42 245.955 253.111 246.018C252.807 246.084 252.438 246.117 252.004 246.117ZM251.74 240.275C251.225 240.275 250.812 240.443 250.504 240.779C250.199 241.115 250.02 241.58 249.965 242.174H253.322C253.322 241.561 253.186 241.092 252.912 240.768C252.639 240.439 252.248 240.275 251.74 240.275ZM258.959 239.461C259.244 239.461 259.5 239.484 259.727 239.531L259.592 240.434C259.326 240.375 259.092 240.346 258.889 240.346C258.369 240.346 257.924 240.557 257.553 240.979C257.186 241.4 257.002 241.926 257.002 242.555V246H256.029V239.578H256.832L256.943 240.768H256.99C257.229 240.35 257.516 240.027 257.852 239.801C258.188 239.574 258.557 239.461 258.959 239.461ZM266.119 245.314C266.291 245.314 266.457 245.303 266.617 245.279C266.777 245.252 266.904 245.225 266.998 245.197V245.941C266.893 245.992 266.736 246.033 266.529 246.064C266.326 246.1 266.143 246.117 265.979 246.117C264.736 246.117 264.115 245.463 264.115 244.154V240.334H263.195V239.865L264.115 239.461L264.525 238.09H265.088V239.578H266.951V240.334H265.088V244.113C265.088 244.5 265.18 244.797 265.363 245.004C265.547 245.211 265.799 245.314 266.119 245.314ZM272.682 246V241.846C272.682 241.322 272.562 240.932 272.324 240.674C272.086 240.416 271.713 240.287 271.205 240.287C270.529 240.287 270.035 240.471 269.723 240.838C269.414 241.205 269.26 241.807 269.26 242.643V246H268.287V236.883H269.26V239.643C269.26 239.975 269.244 240.25 269.213 240.469H269.271C269.463 240.16 269.734 239.918 270.086 239.742C270.441 239.562 270.846 239.473 271.299 239.473C272.084 239.473 272.672 239.66 273.062 240.035C273.457 240.406 273.654 240.998 273.654 241.811V246H272.682ZM279.607 246L279.414 245.086H279.367C279.047 245.488 278.727 245.762 278.406 245.906C278.09 246.047 277.693 246.117 277.217 246.117C276.58 246.117 276.08 245.953 275.717 245.625C275.357 245.297 275.178 244.83 275.178 244.225C275.178 242.928 276.215 242.248 278.289 242.186L279.379 242.15V241.752C279.379 241.248 279.27 240.877 279.051 240.639C278.836 240.396 278.49 240.275 278.014 240.275C277.479 240.275 276.873 240.439 276.197 240.768L275.898 240.023C276.215 239.852 276.561 239.717 276.936 239.619C277.314 239.521 277.693 239.473 278.072 239.473C278.838 239.473 279.404 239.643 279.771 239.982C280.143 240.322 280.328 240.867 280.328 241.617V246H279.607ZM277.41 245.314C278.016 245.314 278.49 245.148 278.834 244.816C279.182 244.484 279.355 244.02 279.355 243.422V242.842L278.383 242.883C277.609 242.91 277.051 243.031 276.707 243.246C276.367 243.457 276.197 243.787 276.197 244.236C276.197 244.588 276.303 244.855 276.514 245.039C276.729 245.223 277.027 245.314 277.41 245.314ZM284.412 245.314C284.584 245.314 284.75 245.303 284.91 245.279C285.07 245.252 285.197 245.225 285.291 245.197V245.941C285.186 245.992 285.029 246.033 284.822 246.064C284.619 246.1 284.436 246.117 284.271 246.117C283.029 246.117 282.408 245.463 282.408 244.154V240.334H281.488V239.865L282.408 239.461L282.818 238.09H283.381V239.578H285.244V240.334H283.381V244.113C283.381 244.5 283.473 244.797 283.656 245.004C283.84 245.211 284.092 245.314 284.412 245.314ZM169 264L167.822 260.232C167.748 260.002 167.609 259.479 167.406 258.662H167.359C167.203 259.346 167.066 259.873 166.949 260.244L165.736 264H164.611L162.859 257.578H163.879C164.293 259.191 164.607 260.42 164.822 261.264C165.041 262.107 165.166 262.676 165.197 262.969H165.244C165.287 262.746 165.355 262.459 165.449 262.107C165.547 261.752 165.631 261.471 165.701 261.264L166.879 257.578H167.934L169.082 261.264C169.301 261.936 169.449 262.5 169.527 262.957H169.574C169.59 262.816 169.631 262.6 169.697 262.307C169.768 262.014 170.176 260.438 170.922 257.578H171.93L170.154 264H169ZM174.068 264H173.096V257.578H174.068V264ZM173.014 255.838C173.014 255.615 173.068 255.453 173.178 255.352C173.287 255.246 173.424 255.193 173.588 255.193C173.744 255.193 173.879 255.246 173.992 255.352C174.105 255.457 174.162 255.619 174.162 255.838C174.162 256.057 174.105 256.221 173.992 256.33C173.879 256.436 173.744 256.488 173.588 256.488C173.424 256.488 173.287 256.436 173.178 256.33C173.068 256.221 173.014 256.057 173.014 255.838ZM177.104 264H176.131V254.883H177.104V264ZM180.139 264H179.166V254.883H180.139V264ZM188.031 264.117C187.082 264.117 186.332 263.828 185.781 263.25C185.234 262.672 184.961 261.869 184.961 260.842C184.961 259.807 185.215 258.984 185.723 258.375C186.234 257.766 186.92 257.461 187.779 257.461C188.584 257.461 189.221 257.727 189.689 258.258C190.158 258.785 190.393 259.482 190.393 260.35V260.965H185.969C185.988 261.719 186.178 262.291 186.537 262.682C186.9 263.072 187.41 263.268 188.066 263.268C188.758 263.268 189.441 263.123 190.117 262.834V263.701C189.773 263.85 189.447 263.955 189.139 264.018C188.834 264.084 188.465 264.117 188.031 264.117ZM187.768 258.275C187.252 258.275 186.84 258.443 186.531 258.779C186.227 259.115 186.047 259.58 185.992 260.174H189.35C189.35 259.561 189.213 259.092 188.939 258.768C188.666 258.439 188.275 258.275 187.768 258.275ZM193.604 260.713L191.371 257.578H192.479L194.172 260.039L195.859 257.578H196.955L194.723 260.713L197.072 264H195.971L194.172 261.398L192.355 264H191.254L193.604 260.713ZM201.338 264.117C200.92 264.117 200.537 264.041 200.189 263.889C199.846 263.732 199.557 263.494 199.322 263.174H199.252C199.299 263.549 199.322 263.904 199.322 264.24V266.883H198.35V257.578H199.141L199.275 258.457H199.322C199.572 258.105 199.863 257.852 200.195 257.695C200.527 257.539 200.908 257.461 201.338 257.461C202.189 257.461 202.846 257.752 203.307 258.334C203.771 258.916 204.004 259.732 204.004 260.783C204.004 261.838 203.768 262.658 203.295 263.244C202.826 263.826 202.174 264.117 201.338 264.117ZM201.197 258.287C200.541 258.287 200.066 258.469 199.773 258.832C199.48 259.195 199.33 259.773 199.322 260.566V260.783C199.322 261.686 199.473 262.332 199.773 262.723C200.074 263.109 200.557 263.303 201.221 263.303C201.775 263.303 202.209 263.078 202.521 262.629C202.838 262.18 202.996 261.561 202.996 260.771C202.996 259.971 202.838 259.357 202.521 258.932C202.209 258.502 201.768 258.287 201.197 258.287ZM206.682 264H205.709V257.578H206.682V264ZM205.627 255.838C205.627 255.615 205.682 255.453 205.791 255.352C205.9 255.246 206.037 255.193 206.201 255.193C206.357 255.193 206.492 255.246 206.605 255.352C206.719 255.457 206.775 255.619 206.775 255.838C206.775 256.057 206.719 256.221 206.605 256.33C206.492 256.436 206.357 256.488 206.201 256.488C206.037 256.488 205.9 256.436 205.791 256.33C205.682 256.221 205.627 256.057 205.627 255.838ZM211.674 257.461C211.959 257.461 212.215 257.484 212.441 257.531L212.307 258.434C212.041 258.375 211.807 258.346 211.604 258.346C211.084 258.346 210.639 258.557 210.268 258.979C209.9 259.4 209.717 259.926 209.717 260.555V264H208.744V257.578H209.547L209.658 258.768H209.705C209.943 258.35 210.23 258.027 210.566 257.801C210.902 257.574 211.271 257.461 211.674 257.461ZM216.355 264.117C215.406 264.117 214.656 263.828 214.105 263.25C213.559 262.672 213.285 261.869 213.285 260.842C213.285 259.807 213.539 258.984 214.047 258.375C214.559 257.766 215.244 257.461 216.104 257.461C216.908 257.461 217.545 257.727 218.014 258.258C218.482 258.785 218.717 259.482 218.717 260.35V260.965H214.293C214.312 261.719 214.502 262.291 214.861 262.682C215.225 263.072 215.734 263.268 216.391 263.268C217.082 263.268 217.766 263.123 218.441 262.834V263.701C218.098 263.85 217.771 263.955 217.463 264.018C217.158 264.084 216.789 264.117 216.355 264.117ZM216.092 258.275C215.576 258.275 215.164 258.443 214.855 258.779C214.551 259.115 214.371 259.58 214.316 260.174H217.674C217.674 259.561 217.537 259.092 217.264 258.768C216.99 258.439 216.6 258.275 216.092 258.275ZM227.641 262.248C227.641 262.846 227.418 263.307 226.973 263.631C226.527 263.955 225.902 264.117 225.098 264.117C224.246 264.117 223.582 263.982 223.105 263.713V262.811C223.414 262.967 223.744 263.09 224.096 263.18C224.451 263.27 224.793 263.314 225.121 263.314C225.629 263.314 226.02 263.234 226.293 263.074C226.566 262.91 226.703 262.662 226.703 262.33C226.703 262.08 226.594 261.867 226.375 261.691C226.16 261.512 225.738 261.301 225.109 261.059C224.512 260.836 224.086 260.643 223.832 260.479C223.582 260.311 223.395 260.121 223.27 259.91C223.148 259.699 223.088 259.447 223.088 259.154C223.088 258.631 223.301 258.219 223.727 257.918C224.152 257.613 224.736 257.461 225.479 257.461C226.17 257.461 226.846 257.602 227.506 257.883L227.16 258.674C226.516 258.408 225.932 258.275 225.408 258.275C224.947 258.275 224.6 258.348 224.365 258.492C224.131 258.637 224.014 258.836 224.014 259.09C224.014 259.262 224.057 259.408 224.143 259.529C224.232 259.65 224.375 259.766 224.57 259.875C224.766 259.984 225.141 260.143 225.695 260.35C226.457 260.627 226.971 260.906 227.236 261.188C227.506 261.469 227.641 261.822 227.641 262.248ZM234.771 260.783C234.771 261.83 234.508 262.648 233.98 263.238C233.453 263.824 232.725 264.117 231.795 264.117C231.221 264.117 230.711 263.982 230.266 263.713C229.82 263.443 229.477 263.057 229.234 262.553C228.992 262.049 228.871 261.459 228.871 260.783C228.871 259.736 229.133 258.922 229.656 258.34C230.18 257.754 230.906 257.461 231.836 257.461C232.734 257.461 233.447 257.76 233.975 258.357C234.506 258.955 234.771 259.764 234.771 260.783ZM229.879 260.783C229.879 261.604 230.043 262.229 230.371 262.658C230.699 263.088 231.182 263.303 231.818 263.303C232.455 263.303 232.938 263.09 233.266 262.664C233.598 262.234 233.764 261.607 233.764 260.783C233.764 259.967 233.598 259.348 233.266 258.926C232.938 258.5 232.451 258.287 231.807 258.287C231.17 258.287 230.689 258.496 230.365 258.914C230.041 259.332 229.879 259.955 229.879 260.783ZM242.025 260.783C242.025 261.83 241.762 262.648 241.234 263.238C240.707 263.824 239.979 264.117 239.049 264.117C238.475 264.117 237.965 263.982 237.52 263.713C237.074 263.443 236.73 263.057 236.488 262.553C236.246 262.049 236.125 261.459 236.125 260.783C236.125 259.736 236.387 258.922 236.91 258.34C237.434 257.754 238.16 257.461 239.09 257.461C239.988 257.461 240.701 257.76 241.229 258.357C241.76 258.955 242.025 259.764 242.025 260.783ZM237.133 260.783C237.133 261.604 237.297 262.229 237.625 262.658C237.953 263.088 238.436 263.303 239.072 263.303C239.709 263.303 240.191 263.09 240.52 262.664C240.852 262.234 241.018 261.607 241.018 260.783C241.018 259.967 240.852 259.348 240.52 258.926C240.191 258.5 239.705 258.287 239.061 258.287C238.424 258.287 237.943 258.496 237.619 258.914C237.295 259.332 237.133 259.955 237.133 260.783ZM248.131 264V259.846C248.131 259.322 248.012 258.932 247.773 258.674C247.535 258.416 247.162 258.287 246.654 258.287C245.982 258.287 245.49 258.469 245.178 258.832C244.865 259.195 244.709 259.795 244.709 260.631V264H243.736V257.578H244.527L244.686 258.457H244.732C244.932 258.141 245.211 257.896 245.57 257.725C245.93 257.549 246.33 257.461 246.771 257.461C247.545 257.461 248.127 257.648 248.518 258.023C248.908 258.395 249.104 258.99 249.104 259.811V264H248.131ZM250.967 263.379C250.967 263.117 251.025 262.92 251.143 262.787C251.264 262.65 251.436 262.582 251.658 262.582C251.885 262.582 252.061 262.65 252.186 262.787C252.314 262.92 252.379 263.117 252.379 263.379C252.379 263.633 252.314 263.828 252.186 263.965C252.057 264.102 251.881 264.17 251.658 264.17C251.459 264.17 251.293 264.109 251.16 263.988C251.031 263.863 250.967 263.66 250.967 263.379Z" fill="#626264"/>
<path d="M147.828 194H145.445V182.578H151.992V184.562H147.828V187.508H151.703V189.484H147.828V194ZM158.914 185.102C159.237 185.102 159.505 185.125 159.719 185.172L159.539 187.406C159.346 187.354 159.112 187.328 158.836 187.328C158.076 187.328 157.482 187.523 157.055 187.914C156.633 188.305 156.422 188.852 156.422 189.555V194H154.039V185.266H155.844L156.195 186.734H156.312C156.583 186.245 156.948 185.852 157.406 185.555C157.87 185.253 158.372 185.102 158.914 185.102ZM164.922 186.797C164.417 186.797 164.021 186.958 163.734 187.281C163.448 187.599 163.284 188.052 163.242 188.641H166.586C166.576 188.052 166.422 187.599 166.125 187.281C165.828 186.958 165.427 186.797 164.922 186.797ZM165.258 194.156C163.852 194.156 162.753 193.768 161.961 192.992C161.169 192.216 160.773 191.117 160.773 189.695C160.773 188.232 161.138 187.102 161.867 186.305C162.602 185.503 163.615 185.102 164.906 185.102C166.141 185.102 167.102 185.453 167.789 186.156C168.477 186.859 168.82 187.831 168.82 189.07V190.227H163.188C163.214 190.904 163.414 191.432 163.789 191.812C164.164 192.193 164.69 192.383 165.367 192.383C165.893 192.383 166.391 192.328 166.859 192.219C167.328 192.109 167.818 191.935 168.328 191.695V193.539C167.911 193.747 167.466 193.901 166.992 194C166.518 194.104 165.94 194.156 165.258 194.156ZM174.375 186.797C173.87 186.797 173.474 186.958 173.188 187.281C172.901 187.599 172.737 188.052 172.695 188.641H176.039C176.029 188.052 175.875 187.599 175.578 187.281C175.281 186.958 174.88 186.797 174.375 186.797ZM174.711 194.156C173.305 194.156 172.206 193.768 171.414 192.992C170.622 192.216 170.227 191.117 170.227 189.695C170.227 188.232 170.591 187.102 171.32 186.305C172.055 185.503 173.068 185.102 174.359 185.102C175.594 185.102 176.555 185.453 177.242 186.156C177.93 186.859 178.273 187.831 178.273 189.07V190.227H172.641C172.667 190.904 172.867 191.432 173.242 191.812C173.617 192.193 174.143 192.383 174.82 192.383C175.346 192.383 175.844 192.328 176.312 192.219C176.781 192.109 177.271 191.935 177.781 191.695V193.539C177.365 193.747 176.919 193.901 176.445 194C175.971 194.104 175.393 194.156 174.711 194.156ZM187.133 194.156C186.107 194.156 185.299 193.758 184.711 192.961C184.128 192.164 183.836 191.06 183.836 189.648C183.836 188.216 184.133 187.102 184.727 186.305C185.326 185.503 186.148 185.102 187.195 185.102C188.294 185.102 189.133 185.529 189.711 186.383H189.789C189.669 185.732 189.609 185.151 189.609 184.641V181.844H192V194H190.172L189.711 192.867H189.609C189.068 193.727 188.242 194.156 187.133 194.156ZM187.969 192.258C188.578 192.258 189.023 192.081 189.305 191.727C189.591 191.372 189.747 190.771 189.773 189.922V189.664C189.773 188.727 189.628 188.055 189.336 187.648C189.049 187.242 188.581 187.039 187.93 187.039C187.398 187.039 186.984 187.266 186.688 187.719C186.396 188.167 186.25 188.82 186.25 189.68C186.25 190.539 186.398 191.185 186.695 191.617C186.992 192.044 187.417 192.258 187.969 192.258ZM198.109 186.797C197.604 186.797 197.208 186.958 196.922 187.281C196.635 187.599 196.471 188.052 196.43 188.641H199.773C199.763 188.052 199.609 187.599 199.312 187.281C199.016 186.958 198.615 186.797 198.109 186.797ZM198.445 194.156C197.039 194.156 195.94 193.768 195.148 192.992C194.357 192.216 193.961 191.117 193.961 189.695C193.961 188.232 194.326 187.102 195.055 186.305C195.789 185.503 196.802 185.102 198.094 185.102C199.328 185.102 200.289 185.453 200.977 186.156C201.664 186.859 202.008 187.831 202.008 189.07V190.227H196.375C196.401 190.904 196.602 191.432 196.977 191.812C197.352 192.193 197.878 192.383 198.555 192.383C199.081 192.383 199.578 192.328 200.047 192.219C200.516 192.109 201.005 191.935 201.516 191.695V193.539C201.099 193.747 200.654 193.901 200.18 194C199.706 194.104 199.128 194.156 198.445 194.156ZM206.328 194H203.945V181.844H206.328V194ZM208.734 183.008C208.734 182.232 209.167 181.844 210.031 181.844C210.896 181.844 211.328 182.232 211.328 183.008C211.328 183.378 211.219 183.667 211 183.875C210.786 184.078 210.464 184.18 210.031 184.18C209.167 184.18 208.734 183.789 208.734 183.008ZM211.219 194H208.836V185.266H211.219V194ZM215.805 194L212.477 185.266H214.969L216.656 190.242C216.844 190.872 216.961 191.469 217.008 192.031H217.055C217.081 191.531 217.198 190.935 217.406 190.242L219.086 185.266H221.578L218.25 194H215.805ZM226.453 186.797C225.948 186.797 225.552 186.958 225.266 187.281C224.979 187.599 224.815 188.052 224.773 188.641H228.117C228.107 188.052 227.953 187.599 227.656 187.281C227.359 186.958 226.958 186.797 226.453 186.797ZM226.789 194.156C225.383 194.156 224.284 193.768 223.492 192.992C222.701 192.216 222.305 191.117 222.305 189.695C222.305 188.232 222.669 187.102 223.398 186.305C224.133 185.503 225.146 185.102 226.438 185.102C227.672 185.102 228.633 185.453 229.32 186.156C230.008 186.859 230.352 187.831 230.352 189.07V190.227H224.719C224.745 190.904 224.945 191.432 225.32 191.812C225.695 192.193 226.221 192.383 226.898 192.383C227.424 192.383 227.922 192.328 228.391 192.219C228.859 192.109 229.349 191.935 229.859 191.695V193.539C229.443 193.747 228.997 193.901 228.523 194C228.049 194.104 227.471 194.156 226.789 194.156ZM237.164 185.102C237.487 185.102 237.755 185.125 237.969 185.172L237.789 187.406C237.596 187.354 237.362 187.328 237.086 187.328C236.326 187.328 235.732 187.523 235.305 187.914C234.883 188.305 234.672 188.852 234.672 189.555V194H232.289V185.266H234.094L234.445 186.734H234.562C234.833 186.245 235.198 185.852 235.656 185.555C236.12 185.253 236.622 185.102 237.164 185.102ZM238.305 185.266H240.914L242.562 190.18C242.703 190.607 242.799 191.112 242.852 191.695H242.898C242.956 191.159 243.068 190.654 243.234 190.18L244.852 185.266H247.406L243.711 195.117C243.372 196.029 242.888 196.711 242.258 197.164C241.633 197.617 240.901 197.844 240.062 197.844C239.651 197.844 239.247 197.799 238.852 197.711V195.82C239.138 195.888 239.451 195.922 239.789 195.922C240.211 195.922 240.578 195.792 240.891 195.531C241.208 195.276 241.456 194.888 241.633 194.367L241.773 193.938L238.305 185.266ZM254.719 189.617C254.719 190.482 254.859 191.135 255.141 191.578C255.427 192.021 255.891 192.242 256.531 192.242C257.167 192.242 257.622 192.023 257.898 191.586C258.18 191.143 258.32 190.487 258.32 189.617C258.32 188.753 258.18 188.104 257.898 187.672C257.617 187.24 257.156 187.023 256.516 187.023C255.88 187.023 255.422 187.24 255.141 187.672C254.859 188.099 254.719 188.747 254.719 189.617ZM260.758 189.617C260.758 191.039 260.383 192.151 259.633 192.953C258.883 193.755 257.839 194.156 256.5 194.156C255.661 194.156 254.922 193.974 254.281 193.609C253.641 193.24 253.148 192.711 252.805 192.023C252.461 191.336 252.289 190.534 252.289 189.617C252.289 188.19 252.661 187.081 253.406 186.289C254.151 185.497 255.198 185.102 256.547 185.102C257.385 185.102 258.125 185.284 258.766 185.648C259.406 186.013 259.898 186.536 260.242 187.219C260.586 187.901 260.758 188.701 260.758 189.617ZM270.789 194H268.406V188.898C268.406 188.268 268.294 187.797 268.07 187.484C267.846 187.167 267.49 187.008 267 187.008C266.333 187.008 265.852 187.232 265.555 187.68C265.258 188.122 265.109 188.859 265.109 189.891V194H262.727V185.266H264.547L264.867 186.383H265C265.266 185.961 265.63 185.643 266.094 185.43C266.562 185.211 267.094 185.102 267.688 185.102C268.703 185.102 269.474 185.378 270 185.93C270.526 186.477 270.789 187.268 270.789 188.305V194ZM143.352 218L142.891 216.812H142.828C142.427 217.318 142.013 217.669 141.586 217.867C141.164 218.06 140.612 218.156 139.93 218.156C139.091 218.156 138.43 217.917 137.945 217.438C137.466 216.958 137.227 216.276 137.227 215.391C137.227 214.464 137.549 213.781 138.195 213.344C138.846 212.901 139.826 212.656 141.133 212.609L142.648 212.562V212.18C142.648 211.294 142.195 210.852 141.289 210.852C140.591 210.852 139.771 211.062 138.828 211.484L138.039 209.875C139.044 209.349 140.159 209.086 141.383 209.086C142.555 209.086 143.453 209.341 144.078 209.852C144.703 210.362 145.016 211.138 145.016 212.18V218H143.352ZM142.648 213.953L141.727 213.984C141.034 214.005 140.518 214.13 140.18 214.359C139.841 214.589 139.672 214.938 139.672 215.406C139.672 216.078 140.057 216.414 140.828 216.414C141.38 216.414 141.82 216.255 142.148 215.938C142.482 215.62 142.648 215.198 142.648 214.672V213.953ZM149.859 218H147.477V205.844H149.859V218ZM154.75 218H152.367V205.844H154.75V218ZM163.312 213.617C163.312 214.482 163.453 215.135 163.734 215.578C164.021 216.021 164.484 216.242 165.125 216.242C165.76 216.242 166.216 216.023 166.492 215.586C166.773 215.143 166.914 214.487 166.914 213.617C166.914 212.753 166.773 212.104 166.492 211.672C166.211 211.24 165.75 211.023 165.109 211.023C164.474 211.023 164.016 211.24 163.734 211.672C163.453 212.099 163.312 212.747 163.312 213.617ZM169.352 213.617C169.352 215.039 168.977 216.151 168.227 216.953C167.477 217.755 166.432 218.156 165.094 218.156C164.255 218.156 163.516 217.974 162.875 217.609C162.234 217.24 161.742 216.711 161.398 216.023C161.055 215.336 160.883 214.534 160.883 213.617C160.883 212.19 161.255 211.081 162 210.289C162.745 209.497 163.792 209.102 165.141 209.102C165.979 209.102 166.719 209.284 167.359 209.648C168 210.013 168.492 210.536 168.836 211.219C169.18 211.901 169.352 212.701 169.352 213.617ZM176.195 209.102C176.518 209.102 176.786 209.125 177 209.172L176.82 211.406C176.628 211.354 176.393 211.328 176.117 211.328C175.357 211.328 174.763 211.523 174.336 211.914C173.914 212.305 173.703 212.852 173.703 213.555V218H171.32V209.266H173.125L173.477 210.734H173.594C173.865 210.245 174.229 209.852 174.688 209.555C175.151 209.253 175.654 209.102 176.195 209.102ZM181.352 218.156C180.326 218.156 179.518 217.758 178.93 216.961C178.346 216.164 178.055 215.06 178.055 213.648C178.055 212.216 178.352 211.102 178.945 210.305C179.544 209.503 180.367 209.102 181.414 209.102C182.513 209.102 183.352 209.529 183.93 210.383H184.008C183.888 209.732 183.828 209.151 183.828 208.641V205.844H186.219V218H184.391L183.93 216.867H183.828C183.286 217.727 182.461 218.156 181.352 218.156ZM182.188 216.258C182.797 216.258 183.242 216.081 183.523 215.727C183.81 215.372 183.966 214.771 183.992 213.922V213.664C183.992 212.727 183.846 212.055 183.555 211.648C183.268 211.242 182.799 211.039 182.148 211.039C181.617 211.039 181.203 211.266 180.906 211.719C180.615 212.167 180.469 212.82 180.469 213.68C180.469 214.539 180.617 215.185 180.914 215.617C181.211 216.044 181.635 216.258 182.188 216.258ZM192.328 210.797C191.823 210.797 191.427 210.958 191.141 211.281C190.854 211.599 190.69 212.052 190.648 212.641H193.992C193.982 212.052 193.828 211.599 193.531 211.281C193.234 210.958 192.833 210.797 192.328 210.797ZM192.664 218.156C191.258 218.156 190.159 217.768 189.367 216.992C188.576 216.216 188.18 215.117 188.18 213.695C188.18 212.232 188.544 211.102 189.273 210.305C190.008 209.503 191.021 209.102 192.312 209.102C193.547 209.102 194.508 209.453 195.195 210.156C195.883 210.859 196.227 211.831 196.227 213.07V214.227H190.594C190.62 214.904 190.82 215.432 191.195 215.812C191.57 216.193 192.096 216.383 192.773 216.383C193.299 216.383 193.797 216.328 194.266 216.219C194.734 216.109 195.224 215.935 195.734 215.695V217.539C195.318 217.747 194.872 217.901 194.398 218C193.924 218.104 193.346 218.156 192.664 218.156ZM203.039 209.102C203.362 209.102 203.63 209.125 203.844 209.172L203.664 211.406C203.471 211.354 203.237 211.328 202.961 211.328C202.201 211.328 201.607 211.523 201.18 211.914C200.758 212.305 200.547 212.852 200.547 213.555V218H198.164V209.266H199.969L200.32 210.734H200.438C200.708 210.245 201.073 209.852 201.531 209.555C201.995 209.253 202.497 209.102 203.039 209.102ZM211.523 215.406C211.523 216.302 211.211 216.984 210.586 217.453C209.966 217.922 209.036 218.156 207.797 218.156C207.161 218.156 206.62 218.112 206.172 218.023C205.724 217.94 205.305 217.815 204.914 217.648V215.68C205.357 215.888 205.854 216.062 206.406 216.203C206.964 216.344 207.453 216.414 207.875 216.414C208.74 216.414 209.172 216.164 209.172 215.664C209.172 215.477 209.115 215.326 209 215.211C208.885 215.091 208.688 214.958 208.406 214.812C208.125 214.661 207.75 214.487 207.281 214.289C206.609 214.008 206.115 213.747 205.797 213.508C205.484 213.268 205.255 212.995 205.109 212.688C204.969 212.375 204.898 211.992 204.898 211.539C204.898 210.763 205.198 210.164 205.797 209.742C206.401 209.315 207.255 209.102 208.359 209.102C209.411 209.102 210.435 209.331 211.43 209.789L210.711 211.508C210.273 211.32 209.865 211.167 209.484 211.047C209.104 210.927 208.716 210.867 208.32 210.867C207.617 210.867 207.266 211.057 207.266 211.438C207.266 211.651 207.378 211.836 207.602 211.992C207.831 212.148 208.328 212.38 209.094 212.688C209.776 212.964 210.276 213.221 210.594 213.461C210.911 213.701 211.146 213.977 211.297 214.289C211.448 214.602 211.523 214.974 211.523 215.406ZM219.438 213.617C219.438 214.482 219.578 215.135 219.859 215.578C220.146 216.021 220.609 216.242 221.25 216.242C221.885 216.242 222.341 216.023 222.617 215.586C222.898 215.143 223.039 214.487 223.039 213.617C223.039 212.753 222.898 212.104 222.617 211.672C222.336 211.24 221.875 211.023 221.234 211.023C220.599 211.023 220.141 211.24 219.859 211.672C219.578 212.099 219.438 212.747 219.438 213.617ZM225.477 213.617C225.477 215.039 225.102 216.151 224.352 216.953C223.602 217.755 222.557 218.156 221.219 218.156C220.38 218.156 219.641 217.974 219 217.609C218.359 217.24 217.867 216.711 217.523 216.023C217.18 215.336 217.008 214.534 217.008 213.617C217.008 212.19 217.38 211.081 218.125 210.289C218.87 209.497 219.917 209.102 221.266 209.102C222.104 209.102 222.844 209.284 223.484 209.648C224.125 210.013 224.617 210.536 224.961 211.219C225.305 211.901 225.477 212.701 225.477 213.617ZM229.523 218L226.195 209.266H228.688L230.375 214.242C230.562 214.872 230.68 215.469 230.727 216.031H230.773C230.799 215.531 230.917 214.935 231.125 214.242L232.805 209.266H235.297L231.969 218H229.523ZM240.172 210.797C239.667 210.797 239.271 210.958 238.984 211.281C238.698 211.599 238.534 212.052 238.492 212.641H241.836C241.826 212.052 241.672 211.599 241.375 211.281C241.078 210.958 240.677 210.797 240.172 210.797ZM240.508 218.156C239.102 218.156 238.003 217.768 237.211 216.992C236.419 216.216 236.023 215.117 236.023 213.695C236.023 212.232 236.388 211.102 237.117 210.305C237.852 209.503 238.865 209.102 240.156 209.102C241.391 209.102 242.352 209.453 243.039 210.156C243.727 210.859 244.07 211.831 244.07 213.07V214.227H238.438C238.464 214.904 238.664 215.432 239.039 215.812C239.414 216.193 239.94 216.383 240.617 216.383C241.143 216.383 241.641 216.328 242.109 216.219C242.578 216.109 243.068 215.935 243.578 215.695V217.539C243.161 217.747 242.716 217.901 242.242 218C241.768 218.104 241.19 218.156 240.508 218.156ZM250.883 209.102C251.206 209.102 251.474 209.125 251.688 209.172L251.508 211.406C251.315 211.354 251.081 211.328 250.805 211.328C250.044 211.328 249.451 211.523 249.023 211.914C248.602 212.305 248.391 212.852 248.391 213.555V218H246.008V209.266H247.812L248.164 210.734H248.281C248.552 210.245 248.917 209.852 249.375 209.555C249.839 209.253 250.341 209.102 250.883 209.102Z" fill="#182135"/>
<path d="M264.711 214.43C264.711 215.258 264.411 215.924 263.812 216.43C263.214 216.93 262.375 217.229 261.297 217.328V218.93H260.227V217.359C258.956 217.333 257.841 217.109 256.883 216.688V214.625C257.336 214.849 257.88 215.047 258.516 215.219C259.156 215.391 259.727 215.492 260.227 215.523V213.102L259.703 212.898C258.672 212.492 257.94 212.052 257.508 211.578C257.081 211.099 256.867 210.508 256.867 209.805C256.867 209.049 257.161 208.43 257.75 207.945C258.344 207.456 259.169 207.159 260.227 207.055V205.859H261.297V207.023C262.49 207.076 263.568 207.315 264.531 207.742L263.797 209.57C262.984 209.237 262.151 209.034 261.297 208.961V211.266C262.312 211.656 263.034 211.995 263.461 212.281C263.893 212.568 264.208 212.883 264.406 213.227C264.609 213.57 264.711 213.971 264.711 214.43ZM262.359 214.547C262.359 214.328 262.271 214.143 262.094 213.992C261.917 213.841 261.651 213.685 261.297 213.523V215.469C262.005 215.349 262.359 215.042 262.359 214.547ZM259.219 209.805C259.219 210.034 259.297 210.224 259.453 210.375C259.615 210.521 259.872 210.672 260.227 210.828V208.992C259.555 209.091 259.219 209.362 259.219 209.805ZM273.945 218H265.961V216.32L268.828 213.422C269.677 212.552 270.232 211.951 270.492 211.617C270.753 211.279 270.94 210.966 271.055 210.68C271.169 210.393 271.227 210.096 271.227 209.789C271.227 209.331 271.099 208.99 270.844 208.766C270.594 208.542 270.258 208.43 269.836 208.43C269.393 208.43 268.964 208.531 268.547 208.734C268.13 208.938 267.695 209.227 267.242 209.602L265.93 208.047C266.492 207.568 266.958 207.229 267.328 207.031C267.698 206.833 268.102 206.682 268.539 206.578C268.977 206.469 269.466 206.414 270.008 206.414C270.721 206.414 271.352 206.544 271.898 206.805C272.445 207.065 272.87 207.43 273.172 207.898C273.474 208.367 273.625 208.904 273.625 209.508C273.625 210.034 273.531 210.529 273.344 210.992C273.161 211.451 272.875 211.922 272.484 212.406C272.099 212.891 271.417 213.581 270.438 214.477L268.969 215.859V215.969H273.945V218ZM279.258 210.703C280.362 210.703 281.24 211.013 281.891 211.633C282.547 212.253 282.875 213.102 282.875 214.18C282.875 215.456 282.482 216.438 281.695 217.125C280.909 217.812 279.784 218.156 278.32 218.156C277.049 218.156 276.023 217.951 275.242 217.539V215.453C275.654 215.672 276.133 215.852 276.68 215.992C277.227 216.128 277.745 216.195 278.234 216.195C279.708 216.195 280.445 215.591 280.445 214.383C280.445 213.232 279.682 212.656 278.156 212.656C277.88 212.656 277.576 212.685 277.242 212.742C276.909 212.794 276.638 212.852 276.43 212.914L275.469 212.398L275.898 206.578H282.094V208.625H278.016L277.805 210.867L278.078 210.812C278.396 210.74 278.789 210.703 279.258 210.703Z" fill="#FB6D3A"/>
<path d="M256.18 219.602H283.594V220.398H256.18V219.602Z" fill="#FB6D3A"/>
<path fill-rule="evenodd" clip-rule="evenodd" d="M176 100C176 93.3726 181.373 88 188 88H228C234.627 88 240 93.3726 240 100V140C240 146.627 234.627 152 228 152H188C181.373 152 176 146.627 176 140V100Z" fill="#FB6D3A" fill-opacity="0.1"/>
<path fill-rule="evenodd" clip-rule="evenodd" d="M216.526 117.274C216.932 117.686 217.345 118.104 217.702 118.578L217.615 118.596C218.191 119.271 218.663 120 219.012 120.818L219.239 121.28C220.898 125.333 219.763 130.062 216.619 133.013C213.807 135.644 209.877 136.338 206.208 135.858C202.767 135.413 199.571 133.209 197.754 130.133C197.195 129.191 196.741 128.124 196.497 127.058C196.2 126.169 196.095 125.28 196.025 124.391C195.781 120.533 197.335 116.444 200.2 114.027C198.89 116.942 199.204 120.587 201.126 123.129C201.213 123.253 201.283 123.342 201.388 123.431C201.702 123.716 202.121 123.822 202.505 123.644C202.855 123.502 203.117 123.147 203.117 122.756C203.117 122.524 203.047 122.347 202.977 122.169C200.881 116.569 202.628 110.044 207.064 106.347C208.287 105.333 209.754 104.409 211.344 104C209.754 107.289 210.278 111.573 212.829 114.169C213.425 114.776 214.083 115.279 214.742 115.782C215.298 116.206 215.855 116.632 216.374 117.12C216.425 117.171 216.475 117.223 216.526 117.274ZM210.401 130.844C211.012 130.667 211.798 130.204 212.287 129.778H212.27C213.318 128.8 213.929 127.2 213.877 125.742C213.877 125.476 213.842 125.227 213.772 124.978C213.488 123.405 212.508 122.524 211.493 121.611C210.948 121.121 210.393 120.621 209.929 120C209.527 119.467 209.178 118.791 208.881 118.116C208.392 119.342 208.357 120.462 208.567 121.778C208.632 122.171 208.723 122.547 208.813 122.919C209.035 123.841 209.25 124.728 209.038 125.742C208.689 127.324 207.466 128.889 205.388 129.387C206.558 130.56 208.479 131.556 210.401 130.844Z" fill="#FB6D3A"/>
<path d="M304.667 78L300 73.3333L301.333 72L306 76.6667L310.667 72L312 73.3333L307.333 78L312 82.6667L310.667 84L306 79.3333L301.333 84L300 82.6667L304.667 78Z" fill="black"/>
<defs>
<filter id="filter0_d" x="60" y="44" width="296" height="444" filterUnits="userSpaceOnUse" color-interpolation-filters="sRGB">
<feFlood flood-opacity="0" result="BackgroundImageFix"/>
<feColorMatrix in="SourceAlpha" type="matrix" values="0 0 0 0 0 0 0 0 0 0 0 0 0 0 0 0 0 0 127 0"/>
<feMorphology radius="4" operator="erode" in="SourceAlpha" result="effect1_dropShadow"/>
<feOffset dy="24"/>
<feGaussianBlur stdDeviation="32"/>
<feColorMatrix type="matrix" values="0 0 0 0 0 0 0 0 0 0 0 0 0 0 0 0 0 0 0.04 0"/>
<feBlend mode="normal" in2="BackgroundImageFix" result="effect1_dropShadow"/>
<feBlend mode="normal" in="SourceGraphic" in2="effect1_dropShadow" result="shape"/>
</filter>
<filter id="filter1_d" x="44" y="32" width="328" height="444" filterUnits="userSpaceOnUse" color-interpolation-filters="sRGB">
<feFlood flood-opacity="0" result="BackgroundImageFix"/>
<feColorMatrix in="SourceAlpha" type="matrix" values="0 0 0 0 0 0 0 0 0 0 0 0 0 0 0 0 0 0 127 0"/>
<feMorphology radius="4" operator="erode" in="SourceAlpha" result="effect1_dropShadow"/>
<feOffset dy="24"/>
<feGaussianBlur stdDeviation="32"/>
<feColorMatrix type="matrix" values="0 0 0 0 0 0 0 0 0 0 0 0 0 0 0 0 0 0 0.04 0"/>
<feBlend mode="normal" in2="BackgroundImageFix" result="effect1_dropShadow"/>
<feBlend mode="normal" in="SourceGraphic" in2="effect1_dropShadow" result="shape"/>
</filter>
<filter id="filter2_d" x="0" y="0" width="416" height="500" filterUnits="userSpaceOnUse" color-interpolation-filters="sRGB">
<feFlood flood-opacity="0" result="BackgroundImageFix"/>
<feColorMatrix in="SourceAlpha" type="matrix" values="0 0 0 0 0 0 0 0 0 0 0 0 0 0 0 0 0 0 127 0"/>
<feMorphology radius="8" operator="erode" in="SourceAlpha" result="effect1_dropShadow"/>
<feOffset dy="32"/>
<feGaussianBlur stdDeviation="48"/>
<feColorMatrix type="matrix" values="0 0 0 0 0 0 0 0 0 0 0 0 0 0 0 0 0 0 0.06 0"/>
<feBlend mode="normal" in2="BackgroundImageFix" result="effect1_dropShadow"/>
<feBlend mode="normal" in="SourceGraphic" in2="effect1_dropShadow" result="shape"/>
</filter>
</defs>
</svg>
